<?xml version="1.0" encoding="utf-8"?>
<!-- Generator: Adobe Illustrator 21.0.2, SVG Export Plug-In . SVG Version: 6.00 Build 0)  -->
<svg version="1.1" id="Layer_2" xmlns="http://www.w3.org/2000/svg" xmlns:xlink="http://www.w3.org/1999/xlink" x="0px" y="0px"
	 viewBox="0 0 377 667" style="enable-background:new 0 0 377 667;" xml:space="preserve">
<style type="text/css">
	.st0{display:none;fill:#FF2350;}
	.st1{enable-background:new    ;}
	.st2{opacity:0.05;enable-background:new    ;}
</style>
<rect class="st0" width="377" height="667"/>
<g class="st1">
	<g>
		<path id="SVGID_1_" class="st2" d="M359.6,464.1c-1.1,0.8-1.4,2.1-0.9,3.3c0.1,0.3,0.2,0.5,0.4,0.7c0.9,1.2,2.6,1.5,3.8,0.7
			c1.1-0.8,1.4-2.1,0.9-3.3c-0.1-0.3-0.2-0.5-0.4-0.7C362.5,463.6,360.8,463.3,359.6,464.1z M361.7,466.7h-0.2l0,0
			C361.7,466.7,361.9,466.8,361.7,466.7z M353.9,455.7c-1.2,0.9-1.5,2.6-0.7,3.8c0.9,1.2,2.6,1.5,3.8,0.7c1.2-0.9,1.5-2.6,0.7-3.8
			S355.2,454.8,353.9,455.7z M365.5,472.6c-1.1,0.8-1.4,2.1-0.9,3.3c0.1,0.3,0.2,0.5,0.4,0.7c0.9,1.2,2.6,1.5,3.8,0.7
			c0.7-0.5,1.1-1.2,1.1-2l-0.1-0.1l0,0h0.1c0-0.3,0-0.6-0.1-0.9s-0.2-0.7-0.4-1C368.4,472,366.7,471.7,365.5,472.6z M368.2,477.3
			L368.2,477.3c0-0.1,0-0.1,0-0.1V477.3L368.2,477.3z M348,447.2c-1.2,0.9-1.5,2.6-0.7,3.8c0.9,1.2,2.6,1.5,3.8,0.7
			c1.2-0.9,1.5-2.6,0.7-3.8C351,446.7,349.3,446.4,348,447.2z M351.2,450.5c-0.2,0-0.5,0.1-0.4-0.2
			C351,450.3,351.2,450.2,351.2,450.5L351.2,450.5z M342.2,438.6c-1.1,0.8-1.4,2.1-0.9,3.3c0.1,0.3,0.2,0.5,0.4,0.7
			c0.9,1.2,2.6,1.5,3.8,0.7c1.1-0.8,1.4-2.1,0.9-3.3c-0.1-0.3-0.2-0.5-0.4-0.7C345.1,438.1,343.4,437.8,342.2,438.6z M328.6,597.6
			c-0.3,1.5,0.7,3,2.2,3.2c1.5,0.3,3-0.7,3.2-2.2c0.3-1.5-0.7-3-2.2-3.2C330.3,595.1,328.8,596.1,328.6,597.6z M353.3,599.6
			c-0.3-0.2-0.6-0.3-1-0.4c-1.5-0.3-3,0.7-3.2,2.2c-0.2,1.3,0.5,2.6,1.7,3.1c0.2,0.1,0.5,0.2,0.8,0.3c1.5,0.3,3-0.7,3.2-2.2
			c0.2-0.8-0.1-1.7-0.6-2.3h-0.1l0,0v-0.1C353.8,599.9,353.6,599.8,353.3,599.6z M354.5,602.9C354.5,602.9,354.4,602.9,354.5,602.9
			C354.4,602.9,354.4,602.8,354.5,602.9L354.5,602.9L354.5,602.9z M359.4,603.3c-0.2,1.3,0.5,2.6,1.7,3.1c0.2,0.1,0.5,0.2,0.8,0.3
			c1.5,0.3,3-0.7,3.2-2.2c0.2-1.3-0.5-2.6-1.7-3.1c-0.2-0.1-0.5-0.2-0.8-0.3C361.1,600.8,359.7,601.8,359.4,603.3z M374.5,605.2
			L374.5,605.2c-0.1,0.2-0.3,0.5-0.4,0.2C374.2,605.3,374.3,605.1,374.5,605.2z M318.2,595.8c-0.3,1.5,0.7,3,2.2,3.2
			c1.5,0.3,3-0.7,3.2-2.2c0.3-1.5-0.7-3-2.2-3.2C319.9,593.2,318.5,594.3,318.2,595.8z M322.8,595.7L322.8,595.7
			c-0.1,0.2-0.3,0.5-0.4,0.2C322.5,595.8,322.6,595.7,322.8,595.7z M297.4,591.9c-0.2,1.3,0.5,2.6,1.7,3.1c0.2,0.1,0.5,0.2,0.8,0.3
			c1.5,0.3,3-0.7,3.2-2.2c0.2-1.3-0.5-2.6-1.7-3.1c-0.2-0.1-0.5-0.2-0.8-0.3C299.1,589.4,297.7,590.4,297.4,591.9z M291.3,588.2
			c-0.3-0.2-0.6-0.3-1-0.4c-1.5-0.3-3,0.7-3.2,2.2c-0.2,1.3,0.5,2.6,1.7,3.1c0.2,0.1,0.5,0.2,0.8,0.3c1.5,0.3,3-0.7,3.2-2.2
			c0.2-0.8-0.1-1.7-0.6-2.3h-0.1l0,0v-0.1C291.9,588.6,291.6,588.4,291.3,588.2z M292.5,591.5C292.5,591.5,292.4,591.5,292.5,591.5
			C292.4,591.5,292.4,591.5,292.5,591.5L292.5,591.5L292.5,591.5z M220.9,523l19.3,27.9l27.9-19.3L220.9,523z M338.7,599.6
			c-0.2,1.3,0.5,2.6,1.7,3.1c0.2,0.1,0.5,0.2,0.8,0.3c1.5,0.3,3-0.7,3.2-2.2c0.2-1.3-0.5-2.6-1.7-3.1c-0.2-0.1-0.5-0.2-0.8-0.3
			C340.5,597.1,339,598.1,338.7,599.6z M342.2,600l-0.2,0.1l0,0C342.1,600,342.4,599.9,342.2,600z M348.5,520.1
			c-1.4-2.7-0.5-6.4,0.2-8.2l0,0l0,0c0-0.1,0-0.1,0-0.2c0.2-0.4,0.3-0.8,0.3-1.2c0.2-1.8-0.8-2.7-0.9-2.7c0,0-0.2-0.1-0.3-0.2l0,0
			l0,0l0,0c0,0-0.4-0.2-0.5-0.3c0,0-0.1,0-0.1-0.1l0,0c-0.1-0.1-0.2-0.1-0.3-0.1c-0.2-0.1-0.3-0.3-0.3-0.4l0,0
			c0-0.3-0.1-0.6-0.2-0.9s-0.3-0.5-0.6-0.7l0,0c0,0,0,0-0.1,0l-0.5,0.1h-0.1v0.1l0,0l0,0c0.3,0.3,0.3,0.8,0.3,1l0,0l0,0v0.1l0,0l0,0
			c0,0.2-0.2,0.3-0.4,0.4c-0.1,0.1-0.2,0.1-0.4,0.2c-0.5,0.2-1,0.4-1.4,0.8c-0.3,0.3-0.6,0.8-0.8,1.3l0,0l0,0
			c-0.3,0.7-0.4,1.6-0.4,2.6c0,0,0,1.3,0.2,2.1l0.2,0.9c0.2,0.7,0.3,1,0.5,1.6c0,0.1,0.1,0.2,0.2,0.3c0,0.1,0.1,0.2,0.1,0.3l0,0
			c0.2,0.4,0.3,0.6,0.6,1.1c0.1,0.1,0.2,0.2,0.3,0.4l0.1,0.1c0.2,0.2,0.4,0.5,0.8,0.8c0.7,0.7,1.3,1.1,1.7,1.3l0,0
			c0.1,0.1,0.6,0.4,1,0.4c0.2,0,0.4,0,0.6-0.1C348.7,520.7,348.5,520.1,348.5,520.1z M271.6,532.3l38.2,55.3l55.3-38.2L271.6,532.3z
			 M62.9,481.6l-2.7,14.6l17.3-11.9L62.9,481.6z M282.9,630.3L282.9,630.3l0.2,0.1C283.2,630.3,283,630.3,282.9,630.3z M254.8,619.3
			L254.8,619.3l0.2,0.1C255.1,619.4,254.9,619.3,254.8,619.3z M261.6,599.3C261.6,599.4,261.6,599.4,261.6,599.3l0.2,0.1
			C261.9,599.4,261.7,599.4,261.6,599.3z M266.6,607.1L266.6,607.1c-0.1,0-0.1,0-0.1,0S266.5,607.1,266.6,607.1L266.6,607.1z
			 M250.7,597.4c-0.1-0.1-0.2-0.1-0.3-0.1C250.2,597.5,250.5,597.5,250.7,597.4L250.7,597.4z M287.9,638L287.9,638
			c-0.1,0-0.1,0-0.1,0S287.8,638,287.9,638L287.9,638z M284.4,647.9L284.4,647.9c-0.1,0-0.1,0-0.1,0S284.3,647.9,284.4,647.9
			L284.4,647.9z M247.3,607.4c-0.1-0.1-0.2-0.1-0.3-0.1C246.9,607.5,247.1,607.5,247.3,607.4L247.3,607.4z M258.2,609.3L258.2,609.3
			l0.2,0.1C258.5,609.4,258.3,609.3,258.2,609.3z M263.1,617L263.1,617c-0.1,0-0.1,0-0.1,0S263,617,263.1,617L263.1,617z
			 M279.5,640.2L279.5,640.2l0.2,0.1C279.8,640.3,279.6,640.2,279.5,640.2z M304.4,645.6c-0.1-0.1-0.2-0.1-0.3-0.1
			C304,645.7,304.3,645.6,304.4,645.6L304.4,645.6z M291.3,628.1L291.3,628.1c-0.1,0-0.1,0-0.1,0
			C291.2,628.1,291.2,628.1,291.3,628.1L291.3,628.1z M278.5,608.4c-0.1,0.2,0.1,0.2,0.3,0.2l0.1-0.1
			C278.8,608.3,278.7,608.4,278.5,608.4z M268.3,638.2c-0.1,0.2,0.1,0.2,0.3,0.2l0.1-0.1C268.6,638.2,268.4,638.2,268.3,638.2z
			 M271.7,628.2c-0.1,0.2,0.1,0.2,0.3,0.2l0.1-0.1C271.9,628.2,271.8,628.2,271.7,628.2z M275.1,618.3c-0.1,0.2,0.1,0.2,0.3,0.2
			l0.1-0.1C275.4,618.3,275.2,618.3,275.1,618.3z M286.3,620.3C286.4,620.3,286.4,620.4,286.3,620.3l0.2,0.1
			C286.7,620.4,286.5,620.4,286.3,620.3z M101.6,519.1l-2.7,14.6l17.3-11.9L101.6,519.1z M99,533.8l-2.7,14.6l17.3-11.9L99,533.8z
			 M113.6,536.5l-2.7,14.6l17.3-11.9L113.6,536.5z M87,516.4L84.3,531l17.3-11.9L87,516.4z M111,551.2l-2.7,14.6l17.3-11.9
			L111,551.2z M89.6,501.6l-2.7,14.6l17.3-11.9L89.6,501.6z M276.7,588.2c-0.2,1.3,0.5,2.6,1.7,3.1c0.2,0.1,0.5,0.2,0.8,0.3
			c1.5,0.3,3-0.7,3.2-2.2c0.2-1.3-0.5-2.6-1.7-3.1c-0.2-0.1-0.5-0.2-0.8-0.3C278.5,585.7,277,586.7,276.7,588.2z M280.2,588.6
			l-0.2,0.1l0,0C280.1,588.6,280.4,588.5,280.2,588.6z M125.6,553.9l-2.7,14.6l17.3-11.9L125.6,553.9z M165.6,410.8l-94,64.9
			l79.4,14.5L165.6,410.8z M77.6,484.2l-2.7,14.6l17.3-11.9L77.6,484.2z M75,499l-2.7,14.6l17.3-11.9L75,499z M132.3,600.6
			l17.3-11.9L135,586L132.3,600.6z M251.4,629.2L251.4,629.2l0.2,0.1C251.7,629.3,251.5,629.2,251.4,629.2z M243.9,617.4
			c-0.1-0.1-0.2-0.1-0.3-0.1C243.5,617.5,243.7,617.4,243.9,617.4L243.9,617.4z M225.8,592.1L225.8,592.1l0.2,0.1
			C226.1,592.2,225.9,592.1,225.8,592.1z M230.7,599.8L230.7,599.8c-0.1,0-0.1,0-0.1,0C230.6,599.9,230.7,599.9,230.7,599.8
			L230.7,599.8z M256.3,636.9L256.3,636.9c-0.1,0-0.1,0-0.1,0C256.2,637,256.2,637,256.3,636.9L256.3,636.9z M319.2,660.1l-44-65.1
			l-60.7-11.7l0,0L156,573.1l47.1,69l10.5-57.8L258,649L319.2,660.1z M272.9,645.5c-0.9,0.6-2.1,0.4-2.8-0.5
			c-0.6-0.9-0.4-2.1,0.5-2.8c0.9-0.6,2.1-0.4,2.8,0.5C274,643.6,273.8,644.8,272.9,645.5z M268.6,639.3c-0.9,0.6-2.1,0.4-2.8-0.5
			c-0.6-0.9-0.4-2.1,0.5-2.8c0.9-0.6,2.1-0.4,2.8,0.5C269.7,637.4,269.5,638.7,268.6,639.3z M271.9,629.3c-0.9,0.6-2.1,0.4-2.8-0.5
			c-0.6-0.9-0.4-2.1,0.5-2.8c0.9-0.6,2.1-0.4,2.8,0.5C273,627.4,272.8,628.6,271.9,629.3z M276.7,632.7c0.6,0.9,0.4,2.1-0.5,2.8
			c-0.9,0.6-2.1,0.4-2.8-0.5c-0.6-0.9-0.4-2.1,0.5-2.8C274.8,631.5,276.1,631.8,276.7,632.7z M275.4,619.3c-0.9,0.6-2.1,0.4-2.8-0.5
			c-0.6-0.9-0.4-2.1,0.5-2.8c0.9-0.6,2.1-0.4,2.8,0.5C276.5,617.5,276.3,618.7,275.4,619.3z M280.1,622.7c0.6,0.9,0.4,2.1-0.5,2.8
			c-0.9,0.6-2.1,0.4-2.8-0.5c-0.6-0.9-0.4-2.1,0.5-2.8C278.3,621.6,279.5,621.8,280.1,622.7z M278.8,609.4c-0.9,0.6-2.1,0.4-2.8-0.5
			c-0.6-0.9-0.4-2.1,0.5-2.8c0.9-0.6,2.1-0.4,2.8,0.5C279.9,607.6,279.7,608.8,278.8,609.4z M283.6,612.8c0.6,0.9,0.4,2.1-0.5,2.8
			c-0.9,0.6-2.1,0.4-2.8-0.5c-0.6-0.9-0.4-2.1,0.5-2.8C281.7,611.7,283,611.9,283.6,612.8z M271.5,602.3c-0.4-0.8-0.1-1.9,0.7-2.4
			c0.9-0.6,2.1-0.4,2.8,0.5c0.1,0.2,0.2,0.4,0.3,0.5c0.4,0.8,0.1,1.9-0.7,2.4c-0.9,0.6-2.1,0.4-2.8-0.5
			C271.7,602.7,271.6,602.5,271.5,602.3z M284.3,620.9c-0.4-0.8-0.1-1.9,0.7-2.4c0.9-0.6,2.1-0.4,2.8,0.5c0.1,0.2,0.2,0.4,0.3,0.5
			c0.4,0.8,0.1,1.9-0.7,2.4c-0.9,0.6-2.1,0.4-2.8-0.5C284.4,621.3,284.3,621.1,284.3,620.9z M288.5,627.1c-0.4-0.8-0.1-1.9,0.7-2.4
			c0.9-0.6,2.1-0.4,2.8,0.5c0.2,0.2,0.3,0.5,0.3,0.7c0.1,0.2,0.1,0.4,0.1,0.6h-0.1l0,0c0,0,0,0.1,0.1,0.1c0,0.6-0.3,1.1-0.8,1.5
			c-0.9,0.6-2.1,0.4-2.8-0.5C288.7,627.4,288.6,627.2,288.5,627.1z M292.8,633.2c-0.4-0.8-0.1-1.9,0.7-2.4c0.9-0.6,2.1-0.4,2.8,0.5
			c0.1,0.2,0.2,0.4,0.3,0.5c0.4,0.8,0.1,1.9-0.7,2.4c-0.9,0.6-2.1,0.4-2.8-0.5C293,633.6,292.9,633.4,292.8,633.2z M297.1,639.4
			c-0.4-0.8-0.1-1.9,0.7-2.4c0.9-0.6,2.1-0.4,2.8,0.5c0.1,0.2,0.2,0.4,0.3,0.5c0.4,0.8,0.1,1.9-0.7,2.4c-0.9,0.6-2.1,0.4-2.8-0.5
			C297.3,639.8,297.2,639.6,297.1,639.4z M302.1,643.3c0.9-0.6,2.1-0.4,2.8,0.5c0.6,0.9,0.4,2.1-0.5,2.8c-0.9,0.6-2.1,0.4-2.8-0.5
			C301,645.1,301.2,643.9,302.1,643.3z M306.4,649.4c0.9-0.6,2.1-0.4,2.8,0.5c0.6,0.9,0.4,2.1-0.5,2.8c-0.9,0.6-2.1,0.4-2.8-0.5
			C305.3,651.3,305.5,650,306.4,649.4z M259.5,599.9c-0.4-0.8-0.1-1.9,0.7-2.4c0.9-0.6,2.1-0.4,2.8,0.5c0.1,0.2,0.2,0.4,0.3,0.5
			c0.4,0.8,0.1,1.9-0.7,2.4c-0.9,0.6-2.1,0.4-2.8-0.5C259.6,600.3,259.6,600.1,259.5,599.9z M263.8,606.1c-0.4-0.8-0.1-1.9,0.7-2.4
			c0.9-0.6,2.1-0.4,2.8,0.5c0.2,0.2,0.3,0.5,0.3,0.7c0.1,0.2,0.1,0.4,0.1,0.6h-0.1l0,0c0,0,0,0.1,0.1,0.1c0,0.6-0.3,1.1-0.8,1.5
			c-0.9,0.6-2.1,0.4-2.8-0.5C263.9,606.4,263.9,606.3,263.8,606.1z M268.1,612.2c-0.4-0.8-0.1-1.9,0.7-2.4c0.9-0.6,2.1-0.4,2.8,0.5
			c0.1,0.2,0.2,0.4,0.3,0.5c0.4,0.8,0.1,1.9-0.7,2.4c-0.9,0.6-2.1,0.4-2.8-0.5C268.2,612.6,268.1,612.4,268.1,612.2z M280.8,630.8
			c-0.4-0.8-0.1-1.9,0.7-2.4c0.9-0.6,2.1-0.4,2.8,0.5c0.1,0.2,0.2,0.4,0.3,0.5c0.4,0.8,0.1,1.9-0.7,2.4c-0.9,0.6-2.1,0.4-2.8-0.5
			C281,631.2,280.9,631,280.8,630.8z M285.1,637c-0.4-0.8-0.1-1.9,0.7-2.4c0.9-0.6,2.1-0.4,2.8,0.5c0.2,0.2,0.3,0.5,0.3,0.7
			c0.1,0.2,0.1,0.4,0.1,0.6h-0.1l0,0c0,0,0,0.1,0.1,0.1c0,0.6-0.3,1.1-0.8,1.5c-0.9,0.6-2.1,0.4-2.8-0.5
			C285.2,637.3,285.2,637.2,285.1,637z M289.4,643.1c-0.4-0.8-0.1-1.9,0.7-2.4c0.9-0.6,2.1-0.4,2.8,0.5c0.1,0.2,0.2,0.4,0.3,0.5
			c0.4,0.8,0.1,1.9-0.7,2.4c-0.9,0.6-2.1,0.4-2.8-0.5C289.5,643.5,289.5,643.3,289.4,643.1z M293.7,649.3c-0.4-0.8-0.1-1.9,0.7-2.4
			c0.9-0.6,2.1-0.4,2.8,0.5c0.1,0.2,0.2,0.4,0.3,0.5c0.4,0.8,0.1,1.9-0.7,2.4c-0.9,0.6-2.1,0.4-2.8-0.5
			C293.8,649.7,293.7,649.5,293.7,649.3z M248.3,595.1c0.9-0.6,2.1-0.4,2.8,0.5c0.6,0.9,0.4,2.1-0.5,2.8c-0.9,0.6-2.1,0.4-2.8-0.5
			C247.2,596.9,247.4,595.7,248.3,595.1z M252.6,601.3c0.9-0.6,2.1-0.4,2.8,0.5c0.6,0.9,0.4,2.1-0.5,2.8c-0.9,0.6-2.1,0.4-2.8-0.5
			C251.5,603.1,251.7,601.9,252.6,601.3z M256.1,609.8c-0.4-0.8-0.1-1.9,0.7-2.4c0.9-0.6,2.1-0.4,2.8,0.5c0.1,0.2,0.2,0.4,0.3,0.5
			c0.4,0.8,0.1,1.9-0.7,2.4c-0.9,0.6-2.1,0.4-2.8-0.5C256.2,610.2,256.1,610,256.1,609.8z M260.4,616c-0.4-0.8-0.1-1.9,0.7-2.4
			c0.9-0.6,2.1-0.4,2.8,0.5c0.2,0.2,0.3,0.5,0.3,0.7c0.1,0.2,0.1,0.4,0.1,0.6h-0.1l0,0c0,0,0,0.1,0.1,0.1c0,0.6-0.3,1.1-0.8,1.5
			c-0.9,0.6-2.1,0.4-2.8-0.5C260.5,616.4,260.4,616.2,260.4,616z M264.6,622.1c-0.4-0.8-0.1-1.9,0.7-2.4c0.9-0.6,2.1-0.4,2.8,0.5
			c0.1,0.2,0.2,0.4,0.3,0.5c0.4,0.8,0.1,1.9-0.7,2.4c-0.9,0.6-2.1,0.4-2.8-0.5C264.8,622.5,264.7,622.3,264.6,622.1z M277.4,640.7
			c-0.4-0.8-0.1-1.9,0.7-2.4c0.9-0.6,2.1-0.4,2.8,0.5c0.1,0.2,0.2,0.4,0.3,0.5c0.4,0.8,0.1,1.9-0.7,2.4c-0.9,0.6-2.1,0.4-2.8-0.5
			C277.5,641.1,277.4,640.9,277.4,640.7z M281.7,646.9c-0.4-0.8-0.1-1.9,0.7-2.4c0.9-0.6,2.1-0.4,2.8,0.5c0.2,0.2,0.3,0.5,0.3,0.7
			c0.1,0.2,0.1,0.4,0.1,0.6h-0.1l0,0c0,0,0,0.1,0.1,0.1c0,0.6-0.3,1.1-0.8,1.5c-0.9,0.6-2.1,0.4-2.8-0.5
			C281.8,647.3,281.7,647.1,281.7,646.9z M235.7,595.1c-0.4-0.8-0.1-1.9,0.7-2.4c0.9-0.6,2.1-0.4,2.8,0.5c0.1,0.2,0.2,0.4,0.3,0.5
			c0.4,0.8,0.1,1.9-0.7,2.4c-0.9,0.6-2.1,0.4-2.8-0.5C235.8,595.5,235.8,595.3,235.7,595.1z M240,601.3c-0.4-0.8-0.1-1.9,0.7-2.4
			c0.9-0.6,2.1-0.4,2.8,0.5c0.1,0.2,0.2,0.4,0.3,0.5c0.4,0.8,0.1,1.9-0.7,2.4c-0.9,0.6-2.1,0.4-2.8-0.5
			C240.1,601.6,240.1,601.4,240,601.3z M245,605.1c0.9-0.6,2.1-0.4,2.8,0.5c0.6,0.9,0.4,2.1-0.5,2.8c-0.9,0.6-2.1,0.4-2.8-0.5
			C243.9,607,244.1,605.7,245,605.1z M249.3,611.3c0.9-0.6,2.1-0.4,2.8,0.5c0.6,0.9,0.4,2.1-0.5,2.8c-0.9,0.6-2.1,0.4-2.8-0.5
			C248.1,613.2,248.4,611.9,249.3,611.3z M252.7,619.9c-0.4-0.8-0.1-1.9,0.7-2.4c0.9-0.6,2.1-0.4,2.8,0.5c0.1,0.2,0.2,0.4,0.3,0.5
			c0.4,0.8,0.1,1.9-0.7,2.4c-0.9,0.6-2.1,0.4-2.8-0.5C252.9,620.2,252.8,620,252.7,619.9z M257,626c-0.4-0.8-0.1-1.9,0.7-2.4
			c0.9-0.6,2.1-0.4,2.8,0.5c0.2,0.2,0.3,0.5,0.3,0.7c0.1,0.2,0.1,0.4,0.1,0.6h-0.1l0,0c0,0,0,0.1,0.1,0.1c0,0.6-0.3,1.1-0.8,1.5
			c-0.9,0.6-2.1,0.4-2.8-0.5C257.1,626.4,257.1,626.2,257,626z M261.3,632.2c-0.4-0.8-0.1-1.9,0.7-2.4c0.9-0.6,2.1-0.4,2.8,0.5
			c0.1,0.2,0.2,0.4,0.3,0.5c0.4,0.8,0.1,1.9-0.7,2.4c-0.9,0.6-2.1,0.4-2.8-0.5C261.4,632.6,261.3,632.4,261.3,632.2z M223.7,592.7
			c-0.4-0.8-0.1-1.9,0.7-2.4c0.9-0.6,2.1-0.4,2.8,0.5c0.1,0.2,0.2,0.4,0.3,0.5c0.4,0.8,0.1,1.9-0.7,2.4c-0.9,0.6-2.1,0.4-2.8-0.5
			C223.8,593.1,223.8,592.9,223.7,592.7z M228,598.8c-0.4-0.8-0.1-1.9,0.7-2.4c0.9-0.6,2.1-0.4,2.8,0.5c0.2,0.2,0.3,0.5,0.3,0.7
			c0.1,0.2,0.1,0.4,0.1,0.6h-0.1l0,0c0,0,0,0.1,0.1,0.1c0,0.6-0.3,1.1-0.8,1.5c-0.9,0.6-2.1,0.4-2.8-0.5
			C228.1,599.2,228,599,228,598.8z M232.3,605c-0.4-0.8-0.1-1.9,0.7-2.4c0.9-0.6,2.1-0.4,2.8,0.5c0.1,0.2,0.2,0.4,0.3,0.5
			c0.4,0.8,0.1,1.9-0.7,2.4c-0.9,0.6-2.1,0.4-2.8-0.5C232.4,605.4,232.3,605.2,232.3,605z M236.6,611.2c-0.4-0.8-0.1-1.9,0.7-2.4
			c0.9-0.6,2.1-0.4,2.8,0.5c0.1,0.2,0.2,0.4,0.3,0.5c0.4,0.8,0.1,1.9-0.7,2.4c-0.9,0.6-2.1,0.4-2.8-0.5
			C236.7,611.5,236.6,611.4,236.6,611.2z M241.5,615c0.9-0.6,2.1-0.4,2.8,0.5c0.6,0.9,0.4,2.1-0.5,2.8c-0.9,0.6-2.1,0.4-2.8-0.5
			C240.4,616.9,240.6,615.7,241.5,615z M245.8,621.2c0.9-0.6,2.1-0.4,2.8,0.5c0.6,0.9,0.4,2.1-0.5,2.8c-0.9,0.6-2.1,0.4-2.8-0.5
			C244.7,623.1,244.9,621.8,245.8,621.2z M249.3,629.8c-0.4-0.8-0.1-1.9,0.7-2.4c0.9-0.6,2.1-0.4,2.8,0.5c0.1,0.2,0.2,0.4,0.3,0.5
			c0.4,0.8,0.1,1.9-0.7,2.4c-0.9,0.6-2.1,0.4-2.8-0.5C249.4,630.1,249.3,630,249.3,629.8z M253.6,635.9c-0.4-0.8-0.1-1.9,0.7-2.4
			c0.9-0.6,2.1-0.4,2.8,0.5c0.2,0.2,0.3,0.5,0.3,0.7c0.1,0.2,0.1,0.4,0.1,0.6h-0.1l0,0c0,0,0,0.1,0.1,0.1c0,0.6-0.3,1.1-0.8,1.5
			c-0.9,0.6-2.1,0.4-2.8-0.5C253.7,636.3,253.6,636.1,253.6,635.9z M257.9,642.1c-0.4-0.8-0.1-1.9,0.7-2.4c0.9-0.6,2.1-0.4,2.8,0.5
			c0.1,0.2,0.2,0.4,0.3,0.5c0.4,0.8,0.1,1.9-0.7,2.4c-0.9,0.6-2.1,0.4-2.8-0.5C258,642.5,257.9,642.3,257.9,642.1z M123,568.6
			l-2.7,14.6l17.3-11.9L123,568.6z M137.6,571.3l-2.7,14.6l17.3-11.9L137.6,571.3z M259.8,627L259.8,627c-0.1,0-0.1,0-0.1,0
			C259.7,627,259.7,627.1,259.8,627L259.8,627z M149.6,588.7l-2.7,14.6l17.3-11.9L149.6,588.7z M202,31.7c1.2-0.9,1.5-2.6,0.7-3.8
			c-0.9-1.2-2.6-1.5-3.8-0.7c-1.2,0.9-1.5,2.6-0.7,3.8C199.1,32.2,200.8,32.5,202,31.7z M118.1,165.9c0.2,0.3,0.5,0.5,0.9,0.6l3,0.6
			c0.7,0.1,1.4-0.4,1.6-1.1l21.3-115.7l114.4,18.9c0.7,0.1,1.4-0.4,1.6-1.1l0.5-3c0.1-0.4,0-0.7-0.2-1c-0.2-0.3-0.5-0.5-0.9-0.5
			L141.5,43.9c-0.4-0.1-0.7,0-1,0.2s-0.5,0.5-0.6,0.9l-22,120C117.9,165.3,117.9,165.7,118.1,165.9z M116.9,95.6l12.4-67.3l66.6,11
			l0.3-1.7l-68.3-11.3l-12.7,69L116.9,95.6z M182.1,19.2l0.3-1.7L114.1,6.2l-12.7,69l1.7,0.3l12.4-67.3L182.1,19.2z M107.7,82.2
			l12.4-67.3l66.6,11l0.3-1.7l-68.3-11.3l-12.7,69L107.7,82.2z M121.5,102.2l12.4-67.3l66.6,11l0.3-1.7l-68.3-11.3l-12.7,69
			L121.5,102.2z M112.3,88.9l12.4-67.3l66.6,11l0.3-1.7l-68.3-11.3l-12.7,69L112.3,88.9z M115.1,114.1c0.9,0.9,2.3,1,3.4,0.3
			c1.2-0.8,1.6-2.5,0.7-3.8c-0.2-0.2-0.4-0.4-0.6-0.6c-0.9-0.9-2.3-1-3.4-0.3c-1.2,0.8-1.6,2.5-0.7,3.8
			C114.7,113.8,114.9,114,115.1,114.1z M109.5,101.4c-1.2,0.8-1.6,2.5-0.7,3.8c0.8,1.2,2.5,1.6,3.8,0.7c1.2-0.8,1.6-2.5,0.7-3.8
			C112.5,100.8,110.8,100.5,109.5,101.4z M110.7,102.2c-0.3,0-0.1-0.3-0.1-0.4l0.1-0.1C110.9,101.9,110.8,102.1,110.7,102.2z
			 M97.5,88.8c0.9,0.9,2.3,1,3.4,0.3c1.2-0.8,1.6-2.5,0.7-3.8c-0.2-0.2-0.4-0.4-0.6-0.6c-0.9-0.9-2.3-1-3.4-0.3
			c-1.2,0.8-1.6,2.5-0.7,3.8C97.1,88.4,97.3,88.6,97.5,88.8z M99.2,86.1c0-0.2,0,0,0,0.2l0,0V86.1z M103.7,92.9
			c-1.2,0.8-1.6,2.5-0.7,3.8c0.8,1.2,2.5,1.6,3.8,0.7s1.6-2.5,0.7-3.8C106.7,92.3,105,92,103.7,92.9z M196.4,23.2
			c1.1-0.8,1.4-2.1,0.9-3.3c-0.1-0.3-0.2-0.5-0.4-0.7c-0.9-1.2-2.6-1.5-3.8-0.7c-1.1,0.8-1.4,2.1-0.9,3.3c0.1,0.3,0.2,0.5,0.4,0.7
			C193.4,23.8,195.1,24.1,196.4,23.2z M194.2,20.6h0.2l0,0C194.3,20.7,194,20.6,194.2,20.6z M184.6,6.3c1.1-0.8,1.4-2.1,0.9-3.3
			c-0.1-0.3-0.2-0.5-0.4-0.7c-0.9-1.2-2.6-1.5-3.8-0.7c-1.1,0.8-1.4,2.1-0.9,3.3c0.1,0.3,0.2,0.5,0.4,0.7
			C181.7,6.9,183.4,7.2,184.6,6.3z M190.5,14.8c1.1-0.8,1.4-2.1,0.9-3.3c-0.1-0.3-0.2-0.5-0.4-0.7c-0.9-1.2-2.6-1.5-3.8-0.7
			c-0.7,0.5-1.1,1.2-1.1,2l0.1,0.1l0,0h-0.1c0,0.3,0,0.6,0.1,0.9c0.1,0.3,0.2,0.7,0.4,1C187.6,15.3,189.3,15.6,190.5,14.8z
			 M187.7,10C187.8,10,187.8,10.1,187.7,10c0,0.1,0,0.1,0,0.1V10L187.7,10z M207.9,40.1c1.2-0.9,1.5-2.6,0.7-3.8
			c-0.9-1.2-2.6-1.5-3.8-0.7c-1.2,0.9-1.5,2.6-0.7,3.8C205,40.7,206.7,41,207.9,40.1z M204.8,36.9c0.2,0,0.5-0.1,0.4,0.2
			C205,37.1,204.8,37.1,204.8,36.9L204.8,36.9z M213.8,48.7c1.1-0.8,1.4-2.1,0.9-3.3c-0.1-0.3-0.2-0.5-0.4-0.7
			c-0.9-1.2-2.6-1.5-3.8-0.7c-1.1,0.8-1.4,2.1-0.9,3.3c0.1,0.3,0.2,0.5,0.4,0.7C210.9,49.3,212.6,49.6,213.8,48.7z M14.8,365.9
			l33.6-23.2L20,337.5L14.8,365.9z M82,319.5l-28.4-5.2l-5.2,28.4L82,319.5z M92.4,418.8L92.4,418.8
			C92.4,418.7,92.3,418.8,92.4,418.8L92.4,418.8L92.4,418.8z M65.6,341.8L65.6,341.8c-0.2,0-0.2,0.1-0.2,0.3
			C65.6,342.1,65.6,341.9,65.6,341.8z M85.9,403.5L85.9,403.5L85.9,403.5C85.9,403.5,86.1,403.5,85.9,403.5z M109.4,168.5l8.4-45.9
			l-54.4,37.5L109.4,168.5z M67.8,361.5L67.8,361.5c0,0.1,0,0.1,0,0.1S67.9,361.6,67.8,361.5L67.8,361.5z M93,398.1L93,398.1
			C93,398,93,398,93,398.1C93,398,93,398.1,93,398.1L93,398.1z M110.7,407.2L110.7,407.2c-0.1-0.1-0.4-0.2-0.3,0
			C110.5,407.3,110.6,407.4,110.7,407.2z M58,358.1L58,358.1c0,0.1,0,0.1,0,0.1S58.1,358.2,58,358.1L58,358.1z M92.7,408.4
			L92.7,408.4L92.7,408.4L92.7,408.4L92.7,408.4z M40.6,359.4c0-0.1,0,0-0.1,0.2l0,0L40.6,359.4z M85.6,413.8L85.6,413.8L85.6,413.8
			C85.6,413.9,85.7,413.9,85.6,413.8z M48.5,373.9L48.5,373.9c-0.2,0-0.2,0.1-0.2,0.3C48.5,374.2,48.5,374,48.5,373.9z M38.7,370.5
			L38.7,370.5c-0.2,0-0.2,0.1-0.2,0.3C38.7,370.8,38.7,370.6,38.7,370.5z M58.4,377.2L58.4,377.2c-0.2,0-0.2,0.1-0.2,0.3
			C58.5,377.5,58.4,377.3,58.4,377.2z M48.2,354.7L48.2,354.7c0,0.1,0,0.1,0,0.1C48.2,354.8,48.2,354.8,48.2,354.7L48.2,354.7z
			 M50.4,362.8c0-0.1,0,0-0.1,0.2l0,0L50.4,362.8z M60.2,366.2c0-0.1,0,0-0.1,0.2l0,0L60.2,366.2z M57,389.3L57,389.3
			c0,0.1,0,0.1,0,0.1S57,389.4,57,389.3L57,389.3z M62.5,419.2L62.5,419.2C62.4,419.1,62.4,419.1,62.5,419.2
			C62.4,419.1,62.4,419.1,62.5,419.2L62.5,419.2z M55.8,414.1L55.8,414.1L55.8,414.1C55.7,414.1,55.9,414.1,55.8,414.1z M56.1,403.7
			L56.1,403.7L56.1,403.7C56,403.7,56.2,403.7,56.1,403.7z M62.2,429.5L62.2,429.5C62.1,429.5,62.1,429.5,62.2,429.5
			C62.1,429.5,62.1,429.5,62.2,429.5L62.2,429.5z M63.2,398.3L63.2,398.3C63.1,398.2,63.1,398.3,63.2,398.3
			C63.1,398.3,63.1,398.3,63.2,398.3L63.2,398.3z M75.1,401.3L75.1,401.3c-0.1-0.1-0.4-0.2-0.3,0C74.9,401.4,75,401.4,75.1,401.3z
			 M73.7,432.5c0.1,0,0.2,0.1,0.3,0v-0.1C73.9,432.4,73.7,432.3,73.7,432.5z M85.1,424.2L85.1,424.2
			C85.2,424.2,85.4,424.2,85.1,424.2L85.1,424.2z M74.7,411.8L74.7,411.8c-0.1-0.1-0.4-0.2-0.3,0C74.4,411.8,74.6,411.9,74.7,411.8z
			 M62.9,408.7L62.9,408.7C62.8,408.6,62.8,408.6,62.9,408.7C62.8,408.7,62.8,408.7,62.9,408.7L62.9,408.7z M74.3,422.2L74.3,422.2
			c-0.1-0.1-0.4-0.2-0.3,0C74.1,422.2,74.2,422.3,74.3,422.2z M47.2,385.9L47.2,385.9c0,0.1,0,0.1,0,0.1S47.2,386,47.2,385.9
			L47.2,385.9z M221.4,44l29.8-20.6l-50.4-9.3L221.4,44z M220.8,24.6c2.6-1.8,6.3-1.2,8.1,1.5c1.8,2.6,1.2,6.3-1.5,8.1
			c-2.6,1.8-6.3,1.2-8.1-1.5S218.1,26.4,220.8,24.6z M49.4,394c0-0.1,0,0-0.1,0.2l0,0L49.4,394z M28.9,367.1L28.9,367.1
			c-0.2,0-0.2,0.1-0.2,0.3C28.9,367.4,28.9,367.2,28.9,367.1z M266.6,586.2c-0.3,1.5,0.7,3,2.2,3.2c1.5,0.3,3-0.7,3.2-2.2
			c0.3-1.5-0.7-3-2.2-3.2C268.3,583.7,266.8,584.7,266.6,586.2z M96.3,548.4L93.6,563l17.3-11.9L96.3,548.4z M108.3,565.8l-2.7,14.6
			l17.3-11.9L108.3,565.8z M132.3,600.6l-2.7,14.6l17.3-11.9L132.3,600.6z M120.3,583.2l-2.7,14.6l17.3-11.9L120.3,583.2z
			 M65.6,449.5L32,472.7l28.4,5.2L65.6,449.5z M72.3,513.6l-2.7,14.6l17.3-11.9L72.3,513.6z M60.3,496.2l-2.7,14.6l17.3-11.9
			L60.3,496.2z M84.3,531l-2.7,14.6l17.3-11.9L84.3,531z M98.6,451.5l5.2-28.4l-33.6,23.2L98.6,451.5z M209.2,578.1L153,496.6
			l-2.2-0.4l56.2,81.5L209.2,578.1z M132.2,428.3l5.2-28.4l-33.6,23.2L132.2,428.3z M202.2,576.8L146,495.3l-2.2-0.4l56.2,81.5
			L202.2,576.8z M130,398.5l-59.9-11.6v-0.1l10.4-60.1L16.2,371L4.9,431.8l60.9,11L130,398.5z M59,432c-0.5-0.8-0.4-1.8,0.2-2.5
			c0.1-0.2,0.3-0.3,0.4-0.4c0.9-0.6,2.1-0.4,2.7,0.5c0.3,0.5,0.4,1.1,0.3,1.6h-0.1l0,0c0,0,0,0,0.1,0.1c-0.1,0.2-0.2,0.4-0.3,0.6
			s-0.3,0.4-0.5,0.6C60.9,433.1,59.7,432.9,59,432z M48.5,406.4c0.9-0.6,2.1-0.4,2.7,0.5c0.6,0.9,0.4,2.1-0.5,2.7s-2.1,0.4-2.7-0.5
			C47.4,408.3,47.6,407.1,48.5,406.4z M41.4,399.7c-0.6-0.9-0.4-2.1,0.5-2.7s2.1-0.4,2.7,0.5c0.6,0.9,0.4,2.1-0.5,2.7
			C43.3,400.8,42,400.6,41.4,399.7z M68,438.2c-0.1,0.2-0.3,0.3-0.4,0.4c-0.9,0.6-2.1,0.4-2.7-0.5c-0.5-0.8-0.4-1.8,0.2-2.5
			c0.1-0.2,0.3-0.3,0.4-0.4c0.9-0.6,2.1-0.4,2.7,0.5C68.8,436.5,68.7,437.6,68,438.2z M53.6,415.3c-0.5-0.8-0.4-1.8,0.2-2.5
			c0.1-0.2,0.3-0.3,0.4-0.4c0.9-0.6,2.1-0.4,2.7,0.5c0.5,0.8,0.4,1.8-0.2,2.5c-0.1,0.2-0.3,0.3-0.4,0.4
			C55.5,416.4,54.3,416.2,53.6,415.3z M59.4,421.6c-0.5-0.8-0.4-1.8,0.2-2.5c0.1-0.2,0.3-0.3,0.4-0.4c0.9-0.6,2.1-0.4,2.7,0.5
			c0.3,0.5,0.4,1.1,0.3,1.6h-0.1l0,0c0,0,0,0,0.1,0.1c-0.1,0.2-0.2,0.4-0.3,0.6s-0.3,0.4-0.5,0.6C61.2,422.7,60,422.5,59.4,421.6z
			 M65.2,427.8c-0.5-0.8-0.4-1.8,0.2-2.5c0.1-0.2,0.3-0.3,0.4-0.4c0.9-0.6,2.1-0.4,2.7,0.5c0.5,0.8,0.4,1.8-0.2,2.5
			c-0.1,0.2-0.3,0.3-0.4,0.4C67,428.9,65.8,428.7,65.2,427.8z M54.2,402.5c0.1-0.2,0.3-0.3,0.4-0.4c0.9-0.6,2.1-0.4,2.7,0.5
			c0.5,0.8,0.4,1.8-0.2,2.5c-0.1,0.2-0.3,0.3-0.4,0.4c-0.9,0.6-2.1,0.4-2.7-0.5C53.4,404.2,53.5,403.1,54.2,402.5z M47.5,395.6
			c-0.6-0.9-0.4-2.1,0.5-2.7c0.2-0.1,0.4-0.2,0.5-0.3c0.8-0.4,1.8-0.1,2.4,0.7c0.6,0.9,0.4,2.1-0.5,2.7c-0.2,0.1-0.4,0.2-0.5,0.3
			C49,396.6,48,396.4,47.5,395.6z M73.8,434.4c-0.9,0.6-2.1,0.4-2.7-0.5s-0.4-2.1,0.5-2.7s2.1-0.4,2.7,0.5
			C74.9,432.5,74.7,433.8,73.8,434.4z M59.8,411.1c-0.5-0.8-0.4-1.8,0.2-2.5c0.1-0.2,0.3-0.3,0.4-0.4c0.9-0.6,2.1-0.4,2.7,0.5
			c0.3,0.5,0.4,1.1,0.3,1.6h-0.1l0,0c0,0,0,0,0.1,0.1c-0.1,0.2-0.2,0.4-0.3,0.6s-0.3,0.4-0.5,0.6C61.6,412.2,60.4,412,59.8,411.1z
			 M65.5,417.4c-0.5-0.8-0.4-1.8,0.2-2.5c0.1-0.2,0.3-0.3,0.4-0.4c0.9-0.6,2.1-0.4,2.7,0.5c0.5,0.8,0.4,1.8-0.2,2.5
			c-0.1,0.2-0.3,0.3-0.4,0.4C67.3,418.5,66.1,418.3,65.5,417.4z M71.4,423.5c-0.6-0.9-0.4-2.1,0.5-2.7s2.1-0.4,2.7,0.5
			s0.4,2.1-0.5,2.7S72,424.4,71.4,423.5z M55.5,388.3C55.5,388.3,55.5,388.2,55.5,388.3c0.6,0,1.2,0.3,1.5,0.8
			c0.6,0.9,0.4,2.1-0.5,2.7c-0.2,0.1-0.4,0.2-0.5,0.3c-0.8,0.4-1.8,0.1-2.4-0.7c-0.6-0.9-0.4-2.1,0.5-2.7c0.2-0.2,0.5-0.3,0.7-0.3
			C55,388.2,55.2,388.2,55.5,388.3C55.4,388.2,55.5,388.3,55.5,388.3L55.5,388.3z M60.3,398.3c0.1-0.2,0.3-0.3,0.4-0.4
			c0.9-0.6,2.1-0.4,2.7,0.5c0.3,0.5,0.4,1.1,0.3,1.6h-0.1l0,0c0,0,0,0,0.1,0.1c-0.1,0.2-0.2,0.4-0.3,0.6s-0.3,0.4-0.5,0.6
			c-0.9,0.6-2.1,0.4-2.7-0.5C59.5,400,59.7,398.9,60.3,398.3z M79.9,430.2c-0.9,0.6-2.1,0.4-2.7-0.5s-0.4-2.1,0.5-2.7
			s2.1-0.4,2.7,0.5S80.8,429.6,79.9,430.2z M65.9,406.9c-0.5-0.8-0.4-1.8,0.2-2.5c0.1-0.2,0.3-0.3,0.4-0.4c0.9-0.6,2.1-0.4,2.7,0.5
			c0.5,0.8,0.4,1.8-0.2,2.5c-0.1,0.2-0.3,0.3-0.4,0.4C67.7,408.1,66.5,407.8,65.9,406.9z M71.7,413.1c-0.6-0.9-0.4-2.1,0.5-2.7
			s2.1-0.4,2.7,0.5s0.4,2.1-0.5,2.7C73.5,414.2,72.3,414,71.7,413.1z M77.5,419.3c-0.6-0.9-0.4-2.1,0.5-2.7s2.1-0.4,2.7,0.5
			s0.4,2.1-0.5,2.7C79.3,420.4,78.1,420.2,77.5,419.3z M66.4,394.1c0.1-0.2,0.3-0.3,0.4-0.4c0.9-0.6,2.1-0.4,2.7,0.5
			c0.5,0.8,0.4,1.8-0.2,2.5c-0.1,0.2-0.3,0.3-0.4,0.4c-0.9,0.6-2.1,0.4-2.7-0.5C65.7,395.8,65.8,394.7,66.4,394.1z M59.7,387.1
			c-0.6-0.9-0.4-2.1,0.5-2.7c0.2-0.1,0.4-0.2,0.5-0.3c0.8-0.4,1.8-0.1,2.4,0.7c0.6,0.9,0.4,2.1-0.5,2.7c-0.2,0.1-0.4,0.2-0.5,0.3
			C61.2,388.1,60.2,387.9,59.7,387.1z M86.3,425.5c-0.1,0.2-0.3,0.3-0.4,0.4c-0.9,0.6-2.1,0.4-2.7-0.5c-0.5-0.8-0.4-1.8,0.2-2.5
			c0.1-0.2,0.3-0.3,0.4-0.4c0.9-0.6,2.1-0.4,2.7,0.5C87.1,423.8,87,424.9,86.3,425.5z M72.1,402.7c-0.6-0.9-0.4-2.1,0.5-2.7
			s2.1-0.4,2.7,0.5s0.4,2.1-0.5,2.7C73.9,403.8,72.7,403.6,72.1,402.7z M77.8,408.9c-0.6-0.9-0.4-2.1,0.5-2.7s2.1-0.4,2.7,0.5
			s0.4,2.1-0.5,2.7S78.4,409.8,77.8,408.9z M83.5,415.1c-0.5-0.8-0.4-1.8,0.2-2.5c0.1-0.2,0.3-0.3,0.4-0.4c0.9-0.6,2.1-0.4,2.7,0.5
			c0.5,0.8,0.4,1.8-0.2,2.5c-0.1,0.2-0.3,0.3-0.4,0.4C85.3,416.2,84.1,416,83.5,415.1z M114.4,401.6c0.9-0.6,2.1-0.4,2.7,0.5
			s0.4,2.1-0.5,2.7s-2.1,0.4-2.7-0.5C113.3,403.5,113.5,402.3,114.4,401.6z M111,406.3c0.6,0.9,0.4,2.1-0.5,2.7s-2.1,0.4-2.7-0.5
			s-0.4-2.1,0.5-2.7S110.4,405.5,111,406.3z M102.1,400c0.1-0.2,0.3-0.3,0.4-0.4c0.9-0.6,2.1-0.4,2.7,0.5c0.5,0.8,0.4,1.8-0.2,2.5
			c-0.1,0.2-0.3,0.3-0.4,0.4c-0.9,0.6-2.1,0.4-2.7-0.5C101.3,401.7,101.5,400.7,102.1,400z M104.9,410.5c0.5,0.8,0.4,1.8-0.2,2.5
			c-0.1,0.2-0.3,0.3-0.4,0.4c-0.9,0.6-2.1,0.4-2.7-0.5c-0.5-0.8-0.4-1.8,0.2-2.5c0.1-0.2,0.3-0.3,0.4-0.4
			C103.1,409.4,104.3,409.6,104.9,410.5z M99.1,404.3c0.5,0.8,0.4,1.8-0.2,2.5c-0.1,0.2-0.3,0.3-0.4,0.4c-0.9,0.6-2.1,0.4-2.7-0.5
			c-0.5-0.8-0.4-1.8,0.2-2.5c0.1-0.2,0.3-0.3,0.4-0.4C97.3,403.2,98.5,403.4,99.1,404.3z M90.1,398c0.1-0.2,0.3-0.3,0.4-0.4
			c0.9-0.6,2.1-0.4,2.7,0.5c0.3,0.5,0.4,1.1,0.3,1.6h-0.1l0,0c0,0,0,0,0.1,0.1c-0.1,0.2-0.2,0.4-0.3,0.6c-0.1,0.2-0.3,0.4-0.5,0.6
			c-0.9,0.6-2.1,0.4-2.7-0.5C89.4,399.7,89.5,398.7,90.1,398z M98.8,414.7c0.5,0.8,0.4,1.8-0.2,2.5c-0.1,0.2-0.3,0.3-0.4,0.4
			c-0.9,0.6-2.1,0.4-2.7-0.5c-0.5-0.8-0.4-1.8,0.2-2.5c0.1-0.2,0.3-0.3,0.4-0.4C97,413.6,98.2,413.8,98.8,414.7z M93,408.5
			c0.3,0.5,0.4,1.1,0.3,1.6h-0.1l0,0c0,0,0,0,0.1,0.1c-0.1,0.2-0.2,0.4-0.3,0.6c-0.1,0.2-0.3,0.4-0.5,0.6c-0.9,0.6-2.1,0.4-2.7-0.5
			c-0.5-0.8-0.4-1.8,0.2-2.5c0.1-0.2,0.3-0.3,0.4-0.4C91.2,407.4,92.4,407.6,93,408.5z M87.2,402.3c0.5,0.8,0.4,1.8-0.2,2.5
			c-0.1,0.2-0.3,0.3-0.4,0.4c-0.9,0.6-2.1,0.4-2.7-0.5c-0.5-0.8-0.4-1.8,0.2-2.5c0.1-0.2,0.3-0.3,0.4-0.4
			C85.3,401.2,86.5,401.4,87.2,402.3z M78.7,395.7c0.9-0.6,2.1-0.4,2.7,0.5s0.4,2.1-0.5,2.7s-2.1,0.4-2.7-0.5
			C77.6,397.6,77.9,396.3,78.7,395.7z M92.7,418.9c0.3,0.5,0.4,1.1,0.3,1.6h-0.1l0,0c0,0,0,0,0.1,0.1c-0.1,0.2-0.2,0.4-0.3,0.6
			c-0.1,0.2-0.3,0.4-0.5,0.6c-0.9,0.6-2.1,0.4-2.7-0.5c-0.5-0.8-0.4-1.8,0.2-2.5c0.1-0.2,0.3-0.3,0.4-0.4
			C90.8,417.7,92.1,418,92.7,418.9z M69.8,337c0.9-0.6,2.1-0.4,2.7,0.5s0.4,2.1-0.5,2.7s-2.1,0.4-2.7-0.5
			C68.7,338.9,68.9,337.7,69.8,337z M63.7,341.3c0.9-0.6,2.1-0.4,2.7,0.5s0.4,2.1-0.5,2.7s-2.1,0.4-2.7-0.5S62.8,341.9,63.7,341.3z
			 M67.3,348.9c0.2-0.1,0.4-0.2,0.5-0.3c0.8-0.4,1.8-0.1,2.4,0.7c0.6,0.9,0.4,2.1-0.5,2.7c-0.2,0.1-0.4,0.2-0.5,0.3
			c-0.8,0.4-1.8,0.1-2.4-0.7C66.2,350.8,66.4,349.5,67.3,348.9z M57.5,345.5c0.2-0.1,0.4-0.2,0.5-0.3c0.8-0.4,1.8-0.1,2.4,0.7
			c0.6,0.9,0.4,2.1-0.5,2.7c-0.2,0.1-0.4,0.2-0.5,0.3c-0.8,0.4-1.8,0.1-2.4-0.7C56.4,347.4,56.6,346.1,57.5,345.5z M61.2,353.2
			c0.2-0.1,0.4-0.2,0.5-0.3c0.8-0.4,1.8-0.1,2.4,0.7c0.6,0.9,0.4,2.1-0.5,2.7c-0.2,0.1-0.4,0.2-0.5,0.3c-0.8,0.4-1.8,0.1-2.4-0.7
			C60.1,355,60.3,353.8,61.2,353.2z M64.9,360.8c0.2-0.2,0.5-0.3,0.7-0.3c0.2-0.1,0.4-0.1,0.6-0.1v0.1l0,0c0,0,0.1,0,0.1-0.1
			c0.6,0,1.1,0.3,1.4,0.8c0.6,0.9,0.4,2.1-0.5,2.7c-0.2,0.1-0.4,0.2-0.5,0.3c-0.8,0.4-1.8,0.1-2.4-0.7
			C63.8,362.6,64,361.4,64.9,360.8z M51.4,349.8c0.2-0.1,0.4-0.2,0.5-0.3c0.8-0.4,1.8-0.1,2.4,0.7c0.6,0.9,0.4,2.1-0.5,2.7
			c-0.2,0.1-0.4,0.2-0.5,0.3c-0.8,0.4-1.8,0.1-2.4-0.7C50.3,351.6,50.5,350.4,51.4,349.8z M55.1,357.4c0.2-0.2,0.5-0.3,0.7-0.3
			c0.2-0.1,0.4-0.1,0.6-0.1v0.1l0,0c0,0,0.1,0,0.1-0.1c0.6,0,1.1,0.3,1.4,0.8c0.6,0.9,0.4,2.1-0.5,2.7c-0.2,0.1-0.4,0.2-0.5,0.3
			c-0.8,0.4-1.8,0.1-2.4-0.7C54,359.2,54.2,358,55.1,357.4z M58.8,365c0.2-0.1,0.4-0.2,0.5-0.3c0.8-0.4,1.8-0.1,2.4,0.7
			c0.6,0.9,0.4,2.1-0.5,2.7c-0.2,0.1-0.4,0.2-0.5,0.3c-0.8,0.4-1.8,0.1-2.4-0.7C57.7,366.9,57.9,365.7,58.8,365z M62.7,372.5
			c0.9-0.6,2.1-0.4,2.7,0.5s0.4,2.1-0.5,2.7s-2.1,0.4-2.7-0.5C61.6,374.3,61.8,373.1,62.7,372.5z M45.3,354c0.2-0.2,0.5-0.3,0.7-0.3
			c0.2-0.1,0.4-0.1,0.6-0.1v0.1l0,0c0,0,0.1,0,0.1-0.1c0.6,0,1.1,0.3,1.4,0.8c0.6,0.9,0.4,2.1-0.5,2.7c-0.2,0.1-0.4,0.2-0.5,0.3
			c-0.8,0.4-1.8,0.1-2.4-0.7C44.2,355.8,44.4,354.6,45.3,354z M49,361.6c0.2-0.1,0.4-0.2,0.5-0.3c0.8-0.4,1.8-0.1,2.4,0.7
			c0.6,0.9,0.4,2.1-0.5,2.7c-0.2,0.1-0.4,0.2-0.5,0.3c-0.8,0.4-1.8,0.1-2.4-0.7C47.9,363.5,48.1,362.3,49,361.6z M52.7,369.1
			c0.9-0.6,2.1-0.4,2.7,0.5c0.6,0.9,0.4,2.1-0.5,2.7s-2.1,0.4-2.7-0.5S51.8,369.8,52.7,369.1z M56.6,376.7c0.9-0.6,2.1-0.4,2.7,0.5
			c0.6,0.9,0.4,2.1-0.5,2.7s-2.1,0.4-2.7-0.5C55.5,378.5,55.7,377.3,56.6,376.7z M39.2,358.2c0.2-0.1,0.4-0.2,0.5-0.3
			c0.8-0.4,1.8-0.1,2.4,0.7c0.6,0.9,0.4,2.1-0.5,2.7c-0.2,0.1-0.4,0.2-0.5,0.3c-0.8,0.4-1.8,0.1-2.4-0.7S38.3,358.9,39.2,358.2z
			 M42.9,365.7c0.9-0.6,2.1-0.4,2.7,0.5c0.6,0.9,0.4,2.1-0.5,2.7s-2.1,0.4-2.7-0.5C41.8,367.6,42,366.4,42.9,365.7z M46.6,373.4
			c0.9-0.6,2.1-0.4,2.7,0.5c0.6,0.9,0.4,2.1-0.5,2.7s-2.1,0.4-2.7-0.5C45.5,375.2,45.8,374,46.6,373.4z M50.4,381
			c0.2-0.1,0.4-0.2,0.5-0.3c0.8-0.4,1.8-0.1,2.4,0.7c0.6,0.9,0.4,2.1-0.5,2.7c-0.2,0.1-0.4,0.2-0.5,0.3c-0.8,0.4-1.8,0.1-2.4-0.7
			C49.3,382.8,49.5,381.6,50.4,381z M33.1,362.3c0.9-0.6,2.1-0.4,2.7,0.5c0.6,0.9,0.4,2.1-0.5,2.7s-2.1,0.4-2.7-0.5
			C32,364.2,32.2,363,33.1,362.3z M36.8,370c0.9-0.6,2.1-0.4,2.7,0.5c0.6,0.9,0.4,2.1-0.5,2.7s-2.1,0.4-2.7-0.5
			C35.7,371.8,35.9,370.6,36.8,370z M40.4,377.6c0.2-0.1,0.4-0.2,0.5-0.3c0.8-0.4,1.8-0.1,2.4,0.7c0.6,0.9,0.4,2.1-0.5,2.7
			c-0.2,0.1-0.4,0.2-0.5,0.3c-0.8,0.4-1.8,0.1-2.4-0.7S39.6,378.3,40.4,377.6z M44.3,385.2c0.2-0.2,0.5-0.3,0.7-0.3
			c0.2-0.1,0.4-0.1,0.6-0.1v0.1l0,0c0,0,0.1,0,0.1-0.1c0.6,0,1.1,0.3,1.4,0.8c0.6,0.9,0.4,2.1-0.5,2.7c-0.2,0.1-0.4,0.2-0.5,0.3
			c-0.8,0.4-1.8,0.1-2.4-0.7C43.2,387.1,43.4,385.8,44.3,385.2z M27,366.6c0.9-0.6,2.1-0.4,2.7,0.5s0.4,2.1-0.5,2.7
			s-2.1,0.4-2.7-0.5C25.9,368.4,26.1,367.2,27,366.6z M30.6,374.2c0.2-0.1,0.4-0.2,0.5-0.3c0.8-0.4,1.8-0.1,2.4,0.7
			c0.6,0.9,0.4,2.1-0.5,2.7c-0.2,0.1-0.4,0.2-0.5,0.3c-0.8,0.4-1.8,0.1-2.4-0.7S29.7,374.9,30.6,374.2z M34.3,381.9
			c0.2-0.2,0.5-0.3,0.7-0.3c0.2-0.1,0.4-0.1,0.6-0.1v0.1l0,0c0,0,0.1,0,0.1-0.1c0.6,0,1.1,0.3,1.4,0.8c0.6,0.9,0.4,2.1-0.5,2.7
			c-0.2,0.1-0.4,0.2-0.5,0.3c-0.8,0.4-1.8,0.1-2.4-0.7C33.2,383.7,33.5,382.5,34.3,381.9z M38.2,389.5c0.2-0.1,0.4-0.2,0.5-0.3
			c0.8-0.4,1.8-0.1,2.4,0.7c0.6,0.9,0.4,2.1-0.5,2.7c-0.2,0.1-0.4,0.2-0.5,0.3c-0.8,0.4-1.8,0.1-2.4-0.7
			C37.1,391.3,37.3,390.1,38.2,389.5z M20.8,370.8c0.2-0.1,0.4-0.2,0.5-0.3c0.8-0.4,1.8-0.1,2.4,0.7c0.6,0.9,0.4,2.1-0.5,2.7
			c-0.2,0.1-0.4,0.2-0.5,0.3c-0.8,0.4-1.8,0.1-2.4-0.7C19.7,372.7,19.9,371.5,20.8,370.8z M24.5,378.5c0.2-0.2,0.5-0.3,0.7-0.3
			c0.2-0.1,0.4-0.1,0.6-0.1v0.1l0,0c0,0,0.1,0,0.1-0.1c0.6,0,1.1,0.3,1.4,0.8c0.6,0.9,0.4,2.1-0.5,2.7c-0.2,0.1-0.4,0.2-0.5,0.3
			c-0.8,0.4-1.8,0.1-2.4-0.7C23.4,380.3,23.7,379.1,24.5,378.5z M28.3,386.1c0.2-0.1,0.4-0.2,0.5-0.3c0.8-0.4,1.8-0.1,2.4,0.7
			c0.6,0.9,0.4,2.1-0.5,2.7c-0.2,0.1-0.4,0.2-0.5,0.3c-0.8,0.4-1.8,0.1-2.4-0.7C27.1,388,27.4,386.8,28.3,386.1z M32.1,393.5
			c0.9-0.6,2.1-0.4,2.7,0.5c0.6,0.9,0.4,2.1-0.5,2.7s-2.1,0.4-2.7-0.5C31,395.4,31.2,394.2,32.1,393.5z M35.8,401.2
			c0.9-0.6,2.1-0.4,2.7,0.5c0.6,0.9,0.4,2.1-0.5,2.7s-2.1,0.4-2.7-0.5C34.7,403,34.9,401.8,35.8,401.2z M18.4,382.7
			c0.2-0.1,0.4-0.2,0.5-0.3c0.8-0.4,1.8-0.1,2.4,0.7c0.6,0.9,0.4,2.1-0.5,2.7c-0.2,0.1-0.4,0.2-0.5,0.3c-0.8,0.4-1.8,0.1-2.4-0.7
			S17.6,383.4,18.4,382.7z M22.2,390.2c0.9-0.6,2.1-0.4,2.7,0.5s0.4,2.1-0.5,2.7s-2.1,0.4-2.7-0.5C21.1,392.1,21.3,390.8,22.2,390.2
			z M26,397.8c0.9-0.6,2.1-0.4,2.7,0.5s0.4,2.1-0.5,2.7s-2.1,0.4-2.7-0.5S25.1,398.4,26,397.8z M29.6,405.4c0.2-0.1,0.4-0.2,0.5-0.3
			c0.8-0.4,1.8-0.1,2.4,0.7c0.6,0.9,0.4,2.1-0.5,2.7c-0.2,0.1-0.4,0.2-0.5,0.3c-0.8,0.4-1.8,0.1-2.4-0.7S28.7,406,29.6,405.4z
			 M19.8,402c0.2-0.1,0.4-0.2,0.5-0.3c0.8-0.4,1.8-0.1,2.4,0.7c0.6,0.9,0.4,2.1-0.5,2.7c-0.2,0.1-0.4,0.2-0.5,0.3
			c-0.8,0.4-1.8,0.1-2.4-0.7C18.7,403.9,18.9,402.6,19.8,402z M23.5,409.7c0.2-0.1,0.4-0.2,0.5-0.3c0.8-0.4,1.8-0.1,2.4,0.7
			c0.6,0.9,0.4,2.1-0.5,2.7c-0.2,0.1-0.4,0.2-0.5,0.3c-0.8,0.4-1.8,0.1-2.4-0.7C22.4,411.5,22.6,410.3,23.5,409.7z M17.4,413.9
			c0.2-0.2,0.5-0.3,0.7-0.3c0.2-0.1,0.4-0.1,0.6-0.1v0.1l0,0c0,0,0.1,0,0.1-0.1c0.6,0,1.1,0.3,1.4,0.8c0.6,0.9,0.4,2.1-0.5,2.7
			c-0.2,0.1-0.4,0.2-0.5,0.3c-0.8,0.4-1.8,0.1-2.4-0.7C16.3,415.8,16.5,414.5,17.4,413.9z M20.4,430.3c-0.1,0.2-0.3,0.3-0.4,0.4
			c-0.9,0.6-2.1,0.4-2.7-0.5c-0.5-0.8-0.4-1.8,0.2-2.5c0.1-0.2,0.3-0.3,0.4-0.4c0.9-0.6,2.1-0.4,2.7,0.5
			C21.2,428.7,21.1,429.7,20.4,430.3z M13.7,421.3c-0.2,0.1-0.4,0.2-0.5,0.3c-0.8,0.4-1.8,0.1-2.4-0.7c-0.6-0.9-0.4-2.1,0.5-2.7
			c0.2-0.1,0.4-0.2,0.5-0.3c0.8-0.4,1.8-0.1,2.4,0.7C14.8,419.5,14.6,420.7,13.7,421.3z M23.4,426c-0.5-0.8-0.4-1.8,0.2-2.5
			c0.1-0.2,0.3-0.3,0.4-0.4c0.9-0.6,2.1-0.4,2.7,0.5c0.3,0.5,0.4,1.1,0.3,1.6h-0.1l0,0c0,0,0,0,0.1,0.1c-0.1,0.2-0.2,0.4-0.3,0.6
			c-0.1,0.2-0.3,0.4-0.5,0.6C25.2,427.2,24,426.9,23.4,426z M32.4,432.3c-0.1,0.2-0.3,0.3-0.4,0.4c-0.9,0.6-2.1,0.4-2.7-0.5
			c-0.5-0.8-0.4-1.8,0.2-2.5c0.1-0.2,0.3-0.3,0.4-0.4c0.9-0.6,2.1-0.4,2.7,0.5C33.1,430.6,33,431.7,32.4,432.3z M16.1,409.4
			c-0.2,0.1-0.4,0.2-0.5,0.3c-0.8,0.4-1.8,0.1-2.4-0.7c-0.6-0.9-0.4-2.1,0.5-2.7c0.2-0.1,0.4-0.2,0.5-0.3c0.8-0.4,1.8-0.1,2.4,0.7
			C17.2,407.6,17,408.8,16.1,409.4z M29.5,421.9c-0.5-0.8-0.4-1.8,0.2-2.5c0.1-0.2,0.3-0.3,0.4-0.4c0.9-0.6,2.1-0.4,2.7,0.5
			c0.5,0.8,0.4,1.8-0.2,2.5c-0.1,0.2-0.3,0.3-0.4,0.4C31.4,423,30.1,422.8,29.5,421.9z M35.4,428c-0.5-0.8-0.4-1.8,0.2-2.5
			c0.1-0.2,0.3-0.3,0.4-0.4c0.9-0.6,2.1-0.4,2.7,0.5c0.5,0.8,0.4,1.8-0.2,2.5c-0.1,0.2-0.3,0.3-0.4,0.4
			C37.2,429.2,36,428.9,35.4,428z M43.8,434.7c-0.9,0.6-2.1,0.4-2.7-0.5c-0.6-0.9-0.4-2.1,0.5-2.7s2.1-0.4,2.7,0.5
			C45,432.9,44.7,434.1,43.8,434.7z M18.3,397.7c-0.9,0.6-2.1,0.4-2.7-0.5c-0.6-0.9-0.4-2.1,0.5-2.7c0.9-0.6,2.1-0.4,2.7,0.5
			C19.4,395.8,19.2,397.1,18.3,397.7z M35.7,417.7c-0.5-0.8-0.4-1.8,0.2-2.5c0.1-0.2,0.3-0.3,0.4-0.4c0.9-0.6,2.1-0.4,2.7,0.5
			c0.5,0.8,0.4,1.8-0.2,2.5c-0.1,0.2-0.3,0.3-0.4,0.4C37.5,418.8,36.3,418.6,35.7,417.7z M41.5,423.7c-0.6-0.9-0.4-2.1,0.5-2.7
			s2.1-0.4,2.7,0.5c0.6,0.9,0.4,2.1-0.5,2.7C43.4,424.9,42.1,424.6,41.5,423.7z M47.2,430c-0.6-0.9-0.4-2.1,0.5-2.7s2.1-0.4,2.7,0.5
			c0.6,0.9,0.4,2.1-0.5,2.7C49.1,431.1,47.8,430.9,47.2,430z M56.1,436.2c-0.1,0.2-0.3,0.3-0.4,0.4c-0.9,0.6-2.1,0.4-2.7-0.5
			c-0.5-0.8-0.4-1.8,0.2-2.5c0.1-0.2,0.3-0.3,0.4-0.4c0.9-0.6,2.1-0.4,2.7,0.5C56.8,434.6,56.7,435.6,56.1,436.2z M41.8,413.4
			c-0.6-0.9-0.4-2.1,0.5-2.7s2.1-0.4,2.7,0.5c0.6,0.9,0.4,2.1-0.5,2.7C43.7,414.5,42.4,414.3,41.8,413.4z M47.7,419.5
			c-0.6-0.9-0.4-2.1,0.5-2.7s2.1-0.4,2.7,0.5c0.6,0.9,0.4,2.1-0.5,2.7C49.5,420.7,48.3,420.4,47.7,419.5z M53.2,425.8
			c-0.5-0.8-0.4-1.8,0.2-2.5c0.1-0.2,0.3-0.3,0.4-0.4c0.9-0.6,2.1-0.4,2.7,0.5c0.5,0.8,0.4,1.8-0.2,2.5c-0.1,0.2-0.3,0.3-0.4,0.4
			C55.1,426.9,53.8,426.7,53.2,425.8z M55.3,424.6L55.3,424.6L55.3,424.6C55.3,424.6,55.5,424.6,55.3,424.6z M132.3,392.5L87,326.8
			l-10.2,55.5L132.3,392.5z M44.8,412L44.8,412c-0.1-0.1-0.4-0.2-0.3,0C44.6,412.1,44.7,412.2,44.8,412z M195.2,575.5L139,494.1
			l-2.2-0.4l56.2,81.5L195.2,575.5z M160.3,569.1l-56.2-81.5l-2.2-0.4l56.2,81.5L160.3,569.1z M153.4,567.9l-56.2-81.5L95,486
			l56.2,81.5L153.4,567.9z M181.3,573l-56.2-81.5l-2.2-0.4l56.2,81.5L181.3,573z M188.2,574.3L132,492.8l-2.2-0.4l56.2,81.5
			L188.2,574.3z M167.3,570.4l-56.2-81.5l-2.2-0.4l56.2,81.5L167.3,570.4z M174.3,571.7l-56.2-81.5l-2.2-0.4l56.2,81.5L174.3,571.7z
			 M37.2,382.6L37.2,382.6c0,0.1,0,0.1,0,0.1C37.3,382.7,37.3,382.7,37.2,382.6L37.2,382.6z M37.7,401.7L37.7,401.7
			c-0.2,0-0.2,0.1-0.2,0.3C37.7,402,37.7,401.8,37.7,401.7z M27.9,398.3L27.9,398.3c-0.2,0-0.2,0.1-0.2,0.3
			C27.9,398.6,27.9,398.4,27.9,398.3z M19.8,383.9c0-0.1,0,0-0.1,0.2l0,0L19.8,383.9z M29.7,387.3c0-0.1,0,0-0.1,0.2l0,0L29.7,387.3
			z M27.4,379.2L27.4,379.2c0,0.1,0,0.1,0,0.1C27.5,379.3,27.5,379.3,27.4,379.2L27.4,379.2z M39.6,390.6c0-0.1,0,0-0.1,0.2l0,0
			L39.6,390.6z M54.9,434.9L54.9,434.9C55,434.9,55.2,434.9,54.9,434.9L54.9,434.9z M43.7,432.9c0.1,0,0.2,0.1,0.3,0v-0.1
			C43.9,432.8,43.7,432.6,43.7,432.9z M17.8,395.2c0.2,0.1,0.2-0.1,0.2-0.3l-0.1-0.1C17.7,394.9,17.8,395.1,17.8,395.2z M44.5,422.4
			L44.5,422.4c-0.1-0.1-0.4-0.2-0.3,0C44.3,422.4,44.4,422.5,44.5,422.4z M19.2,429L19.2,429c0.1,0,0.3,0,0.1,0H19.2z M20.3,414.6
			L20.3,414.6c0,0.1,0,0.1,0,0.1S20.3,414.7,20.3,414.6L20.3,414.6z M12.7,419.5v-0.1C12.7,419.2,12.7,419.4,12.7,419.5L12.7,419.5z
			 M26.5,423.6L26.5,423.6C26.4,423.5,26.4,423.6,26.5,423.6C26.4,423.6,26.4,423.6,26.5,423.6L26.5,423.6z M155.8,165.7
			c-0.1,0-0.2,0.1-0.3,0.3c-0.5,0.9-11.5,23.2-2.6,29.2c0.4,0.3,0.9,0.3,1.4,0.1l0.2-0.1c0.3-0.2,0.6-0.3,0.9-0.5
			c7-4.9,3.1-21.9,1.7-27.2c0-0.1,0-0.2,0-0.2l-0.1-0.4c-0.1-0.4-0.2-0.7-0.2-0.7c-0.1-0.3-0.4-0.5-0.7-0.5
			C156,165.6,155.9,165.6,155.8,165.7z M196.5,224.8c0.1,0,0.3-0.1,0.3-0.2c0.1-0.1,0.1-0.1,0.2-0.2c0.1-0.3,0.1-0.6-0.2-0.8
			c0,0-0.2-0.2-0.6-0.4l-0.3-0.3c0,0-0.1-0.1-0.2-0.1c-4.5-3.1-19.1-12.7-26.1-7.8c-0.3,0.2-0.5,0.4-0.8,0.6l-0.2,0.2
			c-0.4,0.4-0.5,0.9-0.4,1.4C170.7,227.5,195.4,224.9,196.5,224.8z M161.3,133.6c0.1,0,0.1-0.1,0.2-0.2c0.5-0.9,11.5-23.2,2.6-29.2
			c-0.4-0.3-0.9-0.3-1.4-0.1l-0.2,0.1c-0.3,0.2-0.6,0.3-0.9,0.5c-7,4.9-3.1,21.9-1.7,27.2c0,0.1,0,0.2,0,0.2l0.1,0.4
			c0.1,0.2,0.1,0.4,0.2,0.5c0,0.1,0,0.3,0.1,0.4C160.5,133.7,160.9,133.8,161.3,133.6C161.3,133.7,161.3,133.6,161.3,133.6z
			 M272.4,250.6L272.4,250.6c0.7,0.7,1.5,1.3,2.3,1.6c1,0.3,2,0.4,3,0.3c0.3,0,0.5,0,0.7,0c0.4,0,0.8,0.2,1,0.4l0,0l0,0
			c0,0.1,0.1,0.1,0.1,0.2l0,0l0,0c0.2,0.4,0.4,1.1,0.2,1.9l0,0l0,0c0,0.1,0,0.1,0.1,0.2h0.1l0.8-0.2c0,0,0.1,0,0.1-0.1l0,0
			c0.4-0.4,0.5-1,0.5-1.6c0-0.5-0.1-1.1-0.4-1.6l0,0c-0.1-0.3,0-0.6,0.2-0.9c0.1-0.1,0.2-0.3,0.3-0.4l0,0c0.1-0.1,0.1-0.1,0.2-0.2
			c0.2-0.2,0.6-0.8,0.7-0.9l0,0l0,0l0,0c0.2-0.3,0.3-0.5,0.4-0.7s1.1-2.3-0.6-5.2c-0.4-0.6-0.8-1.2-1.4-1.7
			c-0.1-0.1-0.1-0.2-0.2-0.3l0,0l0,0c-2.5-2.4-6.7-7.9-6.5-13.4c0,0,0-1.2-1.1-1.4c-0.3-0.1-0.7,0-1,0.3c-0.5,0.4-1.2,1.2-1.3,1.4
			l0,0c-0.5,0.6-1.2,1.7-1.8,3.5c-0.3,0.7-0.5,1.4-0.6,1.9c0,0.1-0.1,0.2-0.1,0.3c-0.1,0.3-0.1,0.6-0.2,0.8c-0.2,1-0.2,1.4-0.3,2.3
			l0,0c0,0.2,0,0.3,0,0.5c0,0.3,0,0.5,0,0.7c0,1.2,0.1,1.8,0.3,3l0.4,1.6c0.3,1.5,1.3,3.6,1.3,3.6
			C270.5,248.3,271.4,249.6,272.4,250.6L272.4,250.6z M165,195.5c1,0.7,2.3,0.8,3.3,0.1c0.2-0.2,0.5-0.4,0.6-0.6
			c0.3-0.4,31.4-42.4,8-90.6c-0.7-1.4-2.4-2-3.8-1.3c-1.4,0.7-2,2.4-1.3,3.8c21.9,45.1-7.1,84.3-7.4,84.7
			C163.5,192.8,163.7,194.6,165,195.5z M322.3,268.9l-0.5,2.9l12.8-71.8l-25.3-4.5l-43.5-7.8l-5.7-1l-25.5-4.6l16.6-11.4l-28.1-5.2
			l23.5-16.2l-40.2-7.4l-7.4,40.2l23.7-16.4l-5.2,28.1l16.6-11.4L230,205c-28.9-10.9-55.7-3-56.1-2.9c-0.3,0.1-0.6,0.2-0.8,0.4
			c-1,0.7-1.5,2-1.1,3.2c0.5,1.5,2,2.4,3.5,1.9c0.3-0.1,26.1-7.6,53.4,3.2l-6.9,38.7c-4.1-0.3-8.4-0.8-12.9-1.7l3.8-23.2l-3.1-0.5
			l-3.8,23c-2.5-0.6-5.1-1.4-7.7-2.3l-0.4,2.5l2.3-13.8l-3.1-0.5l-11.5,69.6l54.1,9.9c0,2.6,0.1,5.3,0.3,8.1l3.7,0.7l-67.4-12.4
			l10.4-62.9c2.5,1.3,5.1,2.4,7.6,3.4l0.9-5.7c-9.4-3.8-19-9.7-27.8-18.9c-1-1-2.5-1.2-3.7-0.4c-0.1,0.1-0.2,0.2-0.3,0.3
			c-1.1,1.1-1.2,2.9-0.1,4c6.5,6.8,13.5,11.9,20.4,15.8l-11,67l67.5,12.4c1.1,8.6,3.6,17.6,8.1,26.9c0.7,1.4,2.4,2,3.8,1.3
			c0.1-0.1,0.3-0.1,0.4-0.2c1.2-0.8,1.5-2.3,0.9-3.6c-5.9-12.2-8.1-24-8.1-34.7l10.5,1.9l0.6-3.1l-11-2c0.1-2.7,0.3-5.4,0.7-7.9
			l-3.6-0.7l26.2,4.8l0.6-3.1l-22.6-4.2c0.7-3.9,1.5-7.5,2.5-10.9l38.7,6.9c0.6,29.5-15.3,51-15.5,51.3c-0.9,1.3-0.7,3,0.6,4
			c1,0.7,2.3,0.8,3.3,0.1c0.2-0.2,0.5-0.4,0.6-0.6c0.2-0.3,16.9-22.8,16.7-53.7l22.8,4.1L299.7,312l28.1,5.2l-23.5,16.2l40.2,7.4
			l7.4-40.2L328.2,317l5.2-28.1l-16.7,11.5l4.6-25.6 M262.1,221.9c10.7-7.4,25.3-4.7,32.7,6c7.4,10.7,4.7,25.3-6,32.7
			c-10.7,7.4-25.3,4.7-32.7-6C248.7,243.9,251.4,229.2,262.1,221.9z M221.1,255l-4.9,27.4l27.5,4.9c-1,3.4-1.9,7-2.5,10.8L202,291
			l6.2-37.8C212.7,254.2,217,254.8,221.1,255z M189.3,299.9l8.2-49.6c2.6,0.9,5.2,1.6,7.8,2.3l-6.8,40.9l42.2,7.8
			c-0.3,2.6-0.6,5.2-0.7,7.9L189.3,299.9z M85.3,260.6c-2.1,1.5-2.6,4.3-1.2,6.4c1.5,2.1,4.3,2.6,6.4,1.2c2.1-1.5,2.6-4.3,1.2-6.4
			S87.4,259.2,85.3,260.6z M100.8,204c-0.1,0-0.3,0.1-0.3,0.2c-0.1,0.1-0.1,0.1-0.2,0.2c-0.1,0.3-0.1,0.6,0.2,0.8
			c0,0,0.2,0.2,0.6,0.4l0.3,0.3c0,0,0.1,0.1,0.2,0.1c4.5,3.1,19.1,12.7,26.1,7.8c0.3-0.2,0.5-0.4,0.8-0.6l0.2-0.2
			c0.4-0.4,0.5-0.9,0.4-1.4C126.6,201.3,101.9,203.9,100.8,204z M152.9,232c-0.1,0.1-0.3,0.1-0.4,0.2c-1.2,0.8-1.5,2.3-0.9,3.6
			c21.9,45-7.1,84.3-7.4,84.7c-0.9,1.3-0.7,3,0.6,4c1.2,0.9,3.1,0.7,4-0.6c0.3-0.4,31.4-42.4,8-90.6
			C156,231.9,154.3,231.3,152.9,232z M141.8,262.8c0.5-0.9,11.5-23.2,2.6-29.2c-0.4-0.3-0.9-0.3-1.4-0.1l-0.2,0.1
			c-0.3,0.2-0.6,0.3-0.9,0.5c-7,4.9-3.1,21.9-1.7,27.2c0,0.1,0,0.2,0,0.2l0.1,0.4c0.1,0.4,0.2,0.7,0.2,0.7c0.1,0.3,0.4,0.5,0.7,0.5
			c0.1,0,0.2,0,0.3-0.1C141.6,263.1,141.7,263,141.8,262.8z M96.4,252.9c-2.1,1.5-2.6,4.3-1.2,6.4s4.3,2.6,6.4,1.2
			c2.1-1.5,2.6-4.3,1.2-6.4S98.4,251.5,96.4,252.9z M106.3,251.7c1.5,2.1,4.3,2.6,6.4,1.2c2.1-1.5,2.6-4.3,1.2-6.4
			c-1.5-2.1-4.3-2.6-6.4-1.2C105.3,246.7,104.8,249.6,106.3,251.7z M134.7,324.6l0.2-0.1c0.3-0.2,0.6-0.3,0.9-0.5
			c7-4.9,3.1-21.9,1.7-27.2c0-0.1,0-0.2,0-0.2l-0.1-0.4c-0.1-0.2-0.1-0.4-0.2-0.5c0-0.1,0-0.3-0.1-0.4c-0.2-0.3-0.6-0.4-0.9-0.2
			c0,0-0.1,0-0.1,0.1c-0.1,0-0.1,0.1-0.2,0.2c-0.5,0.9-11.5,23.2-2.6,29.2C133.6,324.8,134.1,324.8,134.7,324.6z M241.3,359.7
			c0.1-0.1,0.2-0.2,0.3-0.3c1.1-1.1,1.2-2.9,0.1-4c-37.1-38.7-87.2-24.1-87.7-23.9c-1.5,0.4-2.3,2.1-1.9,3.5c0.5,1.5,2,2.4,3.5,1.9
			c0.5-0.1,47.4-13.7,82,22.4C238.6,360.3,240.2,360.5,241.3,359.7z M176.3,353.5c0.1,0,0.2,0,0.2-0.1l0.1-0.1
			c0.3-0.2,0.4-0.6,0.2-0.9c-0.1-0.1-0.2-0.2-0.3-0.2c-0.1-0.1-0.3-0.2-0.5-0.3l-0.3-0.3c0,0-0.1-0.1-0.2-0.1
			c-4.5-3.1-19.1-12.7-26.1-7.8c-0.3,0.2-0.5,0.4-0.8,0.6l-0.2,0.2c-0.4,0.4-0.5,0.9-0.4,1.4C150.5,356.2,175.2,353.6,176.3,353.5z
			 M104.1,264c-2.1,1.5-2.6,4.3-1.2,6.4c1.5,2.1,4.3,2.6,6.4,1.2c2.1-1.5,2.6-4.3,1.2-6.4C109,263.1,106.2,262.5,104.1,264z
			 M77.6,249.6c-2.1,1.5-2.6,4.3-1.2,6.4c1.5,2.1,4.3,2.6,6.4,1.2c2.1-1.5,2.6-4.3,1.2-6.4C82.5,248.6,79.7,248.1,77.6,249.6z
			 M69.8,238.5c-2.1,1.5-2.6,4.3-1.2,6.4c1.5,2.1,4.3,2.6,6.4,1.2c2.1-1.5,2.6-4.3,1.2-6.4S71.9,237,69.8,238.5z M251,388.7
			l-0.2,0.1c-0.3,0.2-0.6,0.3-0.9,0.5c-7,4.9-3.1,21.9-1.7,27.2c0,0.1,0,0.2,0,0.2l0.1,0.4c0.1,0.4,0.2,0.7,0.2,0.7
			c0.1,0.3,0.4,0.5,0.7,0.5c0.1,0,0.2,0,0.3-0.1c0.1,0,0.2-0.1,0.3-0.3c0.5-0.9,11.5-23.2,2.6-29.2
			C252.1,388.5,251.5,388.5,251,388.7z M100.7,282.8c-2.1,1.5-2.6,4.3-1.2,6.4c1.5,2.1,4.3,2.6,6.4,1.2c2.1-1.5,2.6-4.3,1.2-6.4
			S102.8,281.3,100.7,282.8z M88.6,241.9c-2.1,1.5-2.6,4.3-1.2,6.4s4.3,2.6,6.4,1.2c2.1-1.5,2.6-4.3,1.2-6.4
			C93.6,240.9,90.7,240.4,88.6,241.9z M93,271.7c-2.1,1.5-2.6,4.3-1.2,6.4c1.5,2.1,4.3,2.6,6.4,1.2c2.1-1.5,2.6-4.3,1.2-6.4
			C98,270.8,95.1,270.3,93,271.7z M336.9,385.6l-0.1,0.1c-0.3,0.2-0.4,0.6-0.2,0.9c0.1,0.1,0.2,0.2,0.3,0.2c0.1,0.1,0.3,0.2,0.5,0.3
			l0.3,0.3c0,0,0.1,0.1,0.2,0.1c4.5,3.1,19.1,12.7,26.1,7.8c0.3-0.2,0.5-0.4,0.8-0.6l0.2-0.2c0.4-0.4,0.5-0.9,0.4-1.4
			c-2.5-10.5-27.2-7.8-28.2-7.7C337,385.5,336.9,385.5,336.9,385.6z M208.9,359.1c-0.1,0-0.3,0.1-0.3,0.2c-0.1,0.1-0.1,0.1-0.2,0.2
			c-0.1,0.3-0.1,0.6,0.2,0.8c0,0,0.2,0.2,0.6,0.4l0.3,0.3c0,0,0.1,0.1,0.2,0.1c4.5,3.1,19.1,12.7,26.1,7.8c0.3-0.2,0.5-0.4,0.8-0.6
			l0.2-0.2c0.4-0.4,0.5-0.9,0.4-1.4C234.6,356.3,209.9,359,208.9,359.1z M304.5,379.8c0.1,0,0.3-0.1,0.3-0.2
			c0.1-0.1,0.1-0.1,0.2-0.2c0.1-0.3,0.1-0.6-0.2-0.8c0,0-0.2-0.2-0.6-0.4l-0.3-0.3c0,0-0.1-0.1-0.2-0.1c-4.5-3.1-19.1-12.7-26.1-7.8
			c-0.3,0.2-0.5,0.4-0.8,0.6l-0.2,0.2c-0.4,0.4-0.5,0.9-0.4,1.4C278.7,382.6,303.5,380,304.5,379.8z M262.4,350.3l0.2-0.1
			c0.3-0.2,0.6-0.3,0.9-0.5c7-4.9,3.1-21.9,1.7-27.2c0-0.1,0-0.2,0-0.2l-0.1-0.4c-0.1-0.4-0.2-0.7-0.2-0.7c-0.1-0.3-0.4-0.5-0.7-0.5
			c-0.1,0-0.2,0-0.3,0.1c-0.1,0-0.2,0.1-0.3,0.3c-0.5,0.9-11.5,23.2-2.6,29.2C261.3,350.5,261.8,350.5,262.4,350.3z M369.6,385.1
			c1.1-1.1,1.2-2.9,0.1-4c-37.1-38.7-87.2-24.1-87.7-23.9c-0.3,0.1-0.6,0.2-0.8,0.4c-1,0.7-1.5,2-1.1,3.2c0.5,1.5,2,2.4,3.5,1.9
			c0.5-0.1,47.3-13.8,82,22.4C366.7,386.1,368.5,386.2,369.6,385.1z M124.2,325.7c1.4-0.7,2-2.4,1.3-3.8
			c-21.9-45.1,7.1-84.3,7.4-84.7c0.9-1.3,0.7-3-0.6-4c-1-0.7-2.3-0.8-3.3-0.1c-0.2,0.2-0.5,0.4-0.6,0.6c-0.3,0.4-31.4,42.4-8,90.6
			C121.1,325.8,122.8,326.4,124.2,325.7z M235.4,580.6c-0.2,1.3,0.5,2.6,1.7,3.1c0.2,0.1,0.5,0.2,0.8,0.3c1.5,0.3,3-0.7,3.2-2.2
			c0.2-1.3-0.5-2.6-1.7-3.1c-0.2-0.1-0.5-0.2-0.8-0.3C237.1,578,235.7,579,235.4,580.6z M229.3,576.9c-0.3-0.2-0.6-0.3-1-0.4
			c-1.5-0.3-3,0.7-3.2,2.2c-0.2,1.3,0.5,2.6,1.7,3.1c0.2,0.1,0.5,0.2,0.8,0.3c1.5,0.3,3-0.7,3.2-2.2c0.2-0.8-0.1-1.7-0.6-2.3h-0.1
			l0,0v-0.1C229.9,577.2,229.6,577,229.3,576.9z M230.5,580.1C230.5,580.2,230.5,580.2,230.5,580.1
			C230.4,580.1,230.4,580.1,230.5,580.1L230.5,580.1L230.5,580.1z M192.9,542.3l19.3,28l28-19.3L192.9,542.3z M245.8,582.4
			c-0.2,1.3,0.5,2.6,1.7,3.1c0.2,0.1,0.5,0.2,0.8,0.3c1.5,0.3,3-0.7,3.2-2.2c0.2-1.3-0.5-2.6-1.7-3.1c-0.2-0.1-0.5-0.2-0.8-0.3
			C247.5,579.9,246,580.9,245.8,582.4z M68.5,198.3l0.1-0.1c0.3-0.2,0.4-0.6,0.2-0.9c-0.1-0.1-0.2-0.2-0.3-0.2
			c-0.1-0.1-0.3-0.2-0.5-0.3l-0.3-0.3c0,0-0.1-0.1-0.2-0.1c-4.5-3.1-19.1-12.7-26.1-7.8c-0.3,0.2-0.5,0.4-0.8,0.6l-0.2,0.2
			c-0.4,0.4-0.5,0.9-0.4,1.4c2.5,10.5,27.2,7.8,28.2,7.7C68.3,198.4,68.4,198.4,68.5,198.3z M35.7,198.8c-1.1,1.1-1.2,2.9-0.1,4
			c37.1,38.7,87.2,24.1,87.7,23.9c0.3-0.1,0.6-0.2,0.8-0.4c1-0.7,1.5-2,1.1-3.2c-0.5-1.5-2-2.4-3.5-1.9c-0.5,0.1-47.3,13.8-82-22.4
			C38.7,197.8,36.9,197.7,35.7,198.8z M256.2,584.4c-0.3,1.5,0.7,3,2.2,3.2c1.5,0.3,3-0.7,3.2-2.2c0.3-1.5-0.7-3-2.2-3.2
			C257.9,581.9,256.5,582.9,256.2,584.4z M260.8,584.4L260.8,584.4c-0.1,0.2-0.3,0.5-0.4,0.2C260.5,584.5,260.6,584.3,260.8,584.4z
			 M371.5,538.7c0.1-0.5,0.2-1.1,0.1-1.7c-0.1-0.5-0.3-0.9-0.7-1.4l0,0l0,0c-0.5-0.6-1.1-1.2-2-1.7c0,0-1.1-0.7-1.9-1l-0.9-0.3
			c-0.6-0.2-1-0.3-1.6-0.4c-0.1,0-0.2,0-0.4,0c-0.1,0-0.2,0-0.3,0l0,0c-0.5,0-0.7-0.1-1.3,0c-0.1,0-0.3,0-0.4,0s-0.1,0-0.2,0
			c-0.3,0-0.7,0.1-1.1,0.2c-1,0.2-1.7,0.5-2,0.7l0,0c-0.2,0.1-0.6,0.3-0.9,0.6c-0.2,0.2-0.2,0.4-0.2,0.5c0,0.6,0.7,0.7,0.7,0.7
			c3,0.3,5.7,3,6.8,4.5l0,0l0,0l0.1,0.1c0.3,0.3,0.6,0.6,0.8,0.9c1.4,1.2,2.7,0.8,2.8,0.7c0.1,0,0.2-0.1,0.4-0.2l0,0l0,0l0,0
			c0,0,0.4-0.2,0.5-0.3l0.1-0.1l0,0c0.1-0.1,0.2-0.1,0.3-0.1c0.2-0.1,0.4-0.1,0.5-0.1l0,0c0.3,0.2,0.6,0.3,0.9,0.3
			c0.3,0.1,0.6,0,0.9-0.2l0,0c0,0,0,0,0-0.1l0.1-0.4v-0.1c0,0,0,0-0.1-0.1l0,0l0,0c-0.4,0.1-0.8-0.1-1-0.2l0,0l0,0
			c0,0-0.1,0-0.1-0.1l0,0l0,0c-0.1-0.1-0.2-0.3-0.2-0.6C371.5,538.9,371.5,538.8,371.5,538.7z M329.6,494.7c-0.1,0.5-0.1,1.1,0,1.7
			c0.1,0.5,0.4,0.9,0.8,1.3l0,0l0,0c0.5,0.6,1.2,1.1,2.1,1.6c0,0,1.1,0.6,1.9,0.9l0.9,0.3c0.7,0.2,1,0.2,1.6,0.3c0.1,0,0.2,0,0.4,0
			c0.1,0,0.2,0,0.3,0l0,0c0.5,0,0.7,0,1.3,0c0.1,0,0.3,0,0.4-0.1c0.1,0,0.1,0,0.2,0c0.3,0,0.7-0.1,1.1-0.3c1-0.3,1.6-0.6,2-0.9l0,0
			c0.2-0.1,0.6-0.4,0.8-0.6c0.2-0.2,0.2-0.4,0.2-0.5c-0.1-0.6-0.7-0.7-0.7-0.7c-3.1-0.1-5.9-2.7-7.1-4.1l0,0l0,0
			c-0.1,0-0.1-0.1-0.1-0.1c-0.3-0.3-0.6-0.6-0.9-0.8c-1.5-1.1-2.7-0.6-2.8-0.6c-0.1,0-0.2,0.1-0.4,0.2l0,0l0,0l0,0
			c0,0-0.4,0.3-0.5,0.3l-0.1,0.1l0,0c-0.1,0.1-0.2,0.1-0.3,0.2c-0.2,0.1-0.4,0.1-0.5,0.1l0,0c-0.3-0.1-0.6-0.2-0.9-0.3
			c-0.3,0-0.6,0-0.9,0.2l0,0c0,0,0,0,0,0.1l-0.1,0.4v0.1c0,0,0,0,0.1,0l0,0l0,0c0.4-0.1,0.8,0.1,1,0.2l0,0l0,0c0,0,0.1,0,0.1,0.1
			l0,0l0,0c0.1,0.1,0.2,0.3,0.2,0.5C329.6,494.4,329.6,494.5,329.6,494.7z M143.7,357.9c37.1,38.7,87.2,24.1,87.7,23.9
			c0.3-0.1,0.6-0.2,0.8-0.4c1-0.7,1.5-2,1.1-3.2c-0.5-1.5-2-2.4-3.5-1.9c-0.5,0.1-47.3,13.8-82-22.4c-1.1-1.1-2.9-1.2-4-0.1
			C142.6,354.9,142.6,356.7,143.7,357.9z M325.5,515.4c3.1-0.1,6,2.3,7.3,3.7l0,0l0,0c0.1,0,0.1,0.1,0.2,0.1
			c0.3,0.3,0.6,0.6,0.9,0.8c1.6,1,2.7,0.4,2.8,0.4c0.1,0,0.2-0.1,0.4-0.2l0,0l0,0l0,0c0,0,0.4-0.3,0.5-0.4l0.1-0.1l0,0
			c0.1-0.1,0.2-0.1,0.2-0.2c0.2-0.1,0.4-0.2,0.5-0.1l0,0c0.3,0.1,0.6,0.2,0.9,0.2s0.6-0.1,0.9-0.3l0,0c0,0,0,0,0-0.1l0.1-0.5v-0.1
			l-0.1-0.1l0,0l0,0c-0.4,0.1-0.8,0-1-0.1l0,0l0,0c0,0-0.1,0-0.1-0.1l0,0l0,0c-0.2-0.1-0.2-0.3-0.2-0.5c0-0.1,0-0.3,0-0.4
			c0.1-0.5,0-1.1-0.1-1.7c-0.2-0.5-0.5-0.9-0.8-1.3l0,0l0,0c-0.5-0.5-1.3-1-2.2-1.5c0,0-1.1-0.5-2-0.7l-0.9-0.2
			c-0.7-0.1-1-0.2-1.7-0.2c-0.1,0-0.2,0-0.4,0c-0.1,0-0.2,0-0.3,0l0,0c-0.5,0-0.7,0-1.3,0.1c-0.1,0-0.3,0.1-0.4,0.1s-0.1,0-0.2,0
			c-0.3,0.1-0.7,0.2-1.1,0.3c-1,0.4-1.6,0.7-1.9,1l0,0c-0.2,0.1-0.6,0.4-0.8,0.7c-0.1,0.2-0.2,0.4-0.2,0.6
			C324.8,515.4,325.5,515.4,325.5,515.4z M325.9,508.6L325.9,508.6c0.1,0,0.1,0,0.2,0c0.4,0,0.8,0.1,1.2,0c1.8-0.2,2.4-1.4,2.5-1.5
			c0-0.1,0.1-0.2,0.2-0.4l0,0l0,0l0,0c0,0,0.1-0.5,0.1-0.6V506l0,0c0-0.1,0.1-0.2,0.1-0.3c0.1-0.2,0.2-0.4,0.3-0.4l0,0
			c0.3-0.1,0.6-0.2,0.8-0.4c0.3-0.2,0.4-0.5,0.5-0.8l0,0c0,0,0,0,0-0.1l-0.2-0.4c0,0,0,0-0.1-0.1h-0.1l0,0l0,0
			c-0.3,0.4-0.7,0.5-0.9,0.6l0,0l0,0h-0.1l0,0l0,0c-0.2,0-0.4-0.1-0.5-0.3c-0.1-0.1-0.2-0.2-0.3-0.3c-0.3-0.5-0.7-0.9-1.1-1.2
			c-0.4-0.2-0.9-0.4-1.5-0.5l0,0l0,0c-0.7-0.1-1.6,0-2.6,0.2c0,0-1.2,0.3-2,0.7l-0.8,0.4c-0.6,0.3-0.9,0.5-1.4,0.9
			c-0.1,0-0.2,0.1-0.3,0.2c-0.1,0.1-0.2,0.1-0.2,0.2l0,0c-0.4,0.3-0.5,0.5-0.9,0.9c-0.1,0.1-0.2,0.2-0.3,0.3l-0.1,0.1
			c-0.2,0.2-0.4,0.6-0.6,0.9c-0.5,0.9-0.8,1.6-0.9,2l0,0c-0.1,0.2-0.2,0.7-0.2,1c0,0.2,0.1,0.4,0.2,0.5c0.5,0.4,1,0,1,0
			C320.2,508.3,324,508.3,325.9,508.6L325.9,508.6z M313,488.8L313,488.8c0.1,0.2,0.1,0.4,0,0.6c-0.1,0.1-0.1,0.2-0.2,0.4
			c-0.3,0.4-0.5,1-0.7,1.5c-0.1,0.5,0,1,0.1,1.5l0,0l0,0c0.2,0.7,0.6,1.5,1.2,2.3c0,0,0.8,1,1.4,1.6l0.7,0.6
			c0.5,0.4,0.8,0.6,1.4,0.9c0.1,0,0.2,0.1,0.3,0.2c0.1,0,0.2,0.1,0.3,0.1l0,0c0.4,0.2,0.6,0.3,1.2,0.5c0.1,0,0.3,0.1,0.4,0.1
			s0.1,0,0.2,0c0.3,0.1,0.7,0.1,1.1,0.2c1,0.1,1.7,0.1,2.2,0l0,0c0.2,0,0.7-0.1,1-0.2c0.2-0.1,0.4-0.3,0.4-0.4
			c0.2-0.6-0.4-0.9-0.4-0.9c-2.7-1.4-4.3-4.8-4.8-6.7l0,0l0,0c0-0.1-0.1-0.1-0.1-0.2c-0.1-0.4-0.3-0.8-0.5-1.1
			c-0.9-1.6-2.2-1.7-2.3-1.7c-0.1,0-0.2,0-0.4,0l0,0l0,0l0,0c0,0-0.5,0.1-0.6,0.1h-0.1l0,0c-0.1,0-0.2,0-0.3,0c-0.2,0-0.4,0-0.5-0.1
			l0,0c-0.2-0.3-0.5-0.5-0.7-0.6c-0.3-0.2-0.6-0.2-0.9-0.2l0,0c0,0,0,0-0.1,0l-0.3,0.4c0,0,0,0,0,0.1c0,0,0,0.1,0.1,0.1l0,0l0,0
			c0.4,0.1,0.7,0.4,0.9,0.6l0,0l0,0C313,488.7,313,488.7,313,488.8L313,488.8z M320.3,484.4c2.9-0.9,6.4,0.5,8.1,1.5l0,0l0,0
			c0.1,0,0.1,0,0.2,0.1c0.4,0.2,0.8,0.4,1.1,0.5c1.8,0.5,2.8-0.3,2.8-0.4c0.1,0,0.2-0.2,0.3-0.3l0,0l0,0l0,0c0,0,0.3-0.4,0.4-0.5
			l0.1-0.1l0,0c0.1-0.1,0.1-0.2,0.2-0.2c0.1-0.2,0.3-0.3,0.5-0.3l0,0c0.3,0,0.7,0,0.9,0c0.3-0.1,0.6-0.3,0.8-0.5l0,0c0,0,0,0,0-0.1
			v-0.5v-0.1h-0.1l0,0l0,0c-0.4,0.2-0.8,0.2-1,0.2l0,0l0,0h-0.1l0,0l0,0c-0.2-0.1-0.3-0.2-0.4-0.4c0-0.1-0.1-0.2-0.1-0.4
			c-0.1-0.5-0.3-1.1-0.6-1.6c-0.3-0.4-0.7-0.7-1.2-1l0,0l0,0c-0.7-0.4-1.5-0.7-2.5-0.8c0,0-1.2-0.2-2.1-0.2h-0.9
			c-0.7,0.1-1,0.1-1.6,0.3c-0.1,0-0.2,0.1-0.3,0.1c-0.1,0-0.2,0.1-0.3,0.1l0,0c-0.5,0.1-0.7,0.2-1.2,0.5c-0.1,0-0.2,0.1-0.4,0.2
			c-0.1,0-0.1,0.1-0.2,0.1c-0.3,0.2-0.6,0.4-0.9,0.6c-0.8,0.6-1.3,1.1-1.6,1.5l0,0c-0.1,0.1-0.5,0.6-0.6,0.9c-0.1,0.2-0.1,0.4,0,0.6
			C319.7,484.6,320.3,484.4,320.3,484.4z M304.9,511.4c-0.1,0.5-0.2,1.1-0.1,1.7c0.1,0.5,0.4,0.9,0.7,1.4l0,0l0,0
			c0.5,0.6,1.1,1.2,2,1.7c0,0,1.1,0.7,1.9,0.9l0.9,0.3c0.6,0.2,1,0.3,1.6,0.4c0.1,0,0.2,0,0.4,0c0.1,0,0.2,0,0.3,0l0,0
			c0.5,0,0.7,0.1,1.3,0c0.1,0,0.3,0,0.4,0s0.1,0,0.2,0c0.3,0,0.7-0.1,1.1-0.2c1-0.3,1.6-0.6,2-0.8l0,0c0.2-0.1,0.6-0.3,0.9-0.6
			c0.2-0.2,0.2-0.4,0.2-0.5c0-0.6-0.7-0.7-0.7-0.7c-3.1-0.3-5.8-2.9-6.9-4.5l0,0l0,0l-0.1-0.1c-0.3-0.3-0.6-0.6-0.9-0.9
			c-1.4-1.2-2.7-0.7-2.8-0.7c-0.1,0-0.2,0.1-0.4,0.2l0,0l0,0l0,0c0,0-0.4,0.2-0.5,0.3l-0.1,0.1l0,0c-0.1,0.1-0.2,0.1-0.3,0.1
			c-0.2,0.1-0.4,0.1-0.5,0.1l0,0c-0.3-0.2-0.6-0.3-0.9-0.3c-0.3-0.1-0.6,0-0.9,0.2l0,0c0,0,0,0,0,0.1l-0.1,0.4v0.1c0,0,0,0,0.1,0.1
			l0,0l0,0c0.4-0.1,0.8,0.1,1,0.2l0,0l0,0c0,0,0.1,0,0.1,0.1l0,0l0,0c0.1,0.1,0.2,0.3,0.2,0.6C304.9,511.1,304.9,511.2,304.9,511.4z
			 M289.9,427.4l-8.4,45.9l54.4-37.5L289.9,427.4z M358.7,517.6c0-0.1-0.1-0.2-0.2-0.3s-0.1-0.2-0.2-0.2l0,0c-0.3-0.4-0.4-0.6-0.8-1
			c-0.1-0.1-0.2-0.2-0.3-0.3l-0.1-0.1c-0.2-0.2-0.5-0.4-0.9-0.7c-0.8-0.6-1.5-0.9-1.9-1l0,0c-0.1-0.1-0.7-0.3-1-0.3
			c-0.2,0-0.4,0.1-0.6,0.2c-0.4,0.4-0.1,1-0.1,1c1.8,2.5,1.6,6.3,1.2,8.1l0,0l0,0c0,0.1,0,0.1,0,0.2c-0.1,0.4-0.1,0.8-0.1,1.2
			c0.1,1.8,1.2,2.5,1.3,2.6c0.1,0,0.2,0.1,0.4,0.2l0,0l0,0l0,0c0,0,0.5,0.2,0.6,0.2h0.1l0,0c0.1,0,0.2,0.1,0.3,0.1
			c0.2,0.1,0.3,0.2,0.4,0.4l0,0c0.1,0.3,0.2,0.6,0.3,0.9c0.2,0.3,0.4,0.5,0.7,0.6l0,0c0,0,0,0,0.1,0l0.4-0.2c0,0,0,0,0.1-0.1V529
			l0,0l0,0c-0.3-0.3-0.5-0.7-0.5-0.9l0,0l0,0V528l0,0l0,0c0-0.2,0.1-0.3,0.3-0.5c0.1-0.1,0.2-0.2,0.3-0.2c0.5-0.2,0.9-0.6,1.3-1.1
			c0.3-0.4,0.5-0.9,0.6-1.4l0,0l0,0c0.1-0.7,0.1-1.6,0-2.6c0,0-0.2-1.2-0.5-2l-0.3-0.9C359.2,518.4,359,518.1,358.7,517.6z
			 M146.8,101l46.3-31.9L154,61.9L146.8,101z M197.3,421.4c-2.1,1.5-2.6,4.3-1.2,6.4c1.5,2.1,4.3,2.6,6.4,1.2
			c2.1-1.5,2.6-4.3,1.2-6.4C202.3,420.5,199.4,420,197.3,421.4z M205,432.5c-2.1,1.5-2.6,4.3-1.2,6.4c1.5,2.1,4.3,2.6,6.4,1.2
			c2.1-1.5,2.6-4.3,1.2-6.4C210,431.6,207.1,431,205,432.5z M192.9,391.6c-2.1,1.5-2.6,4.3-1.2,6.4c1.5,2.1,4.3,2.6,6.4,1.2
			c2.1-1.5,2.6-4.3,1.2-6.4C197.9,390.6,195,390.1,192.9,391.6z M208.4,413.7c-2.1,1.5-2.6,4.3-1.2,6.4c1.5,2.1,4.3,2.6,6.4,1.2
			c2.1-1.5,2.6-4.3,1.2-6.4C213.3,412.8,210.5,412.3,208.4,413.7z M210.6,401.4c1.5,2.1,4.3,2.6,6.4,1.2c2.1-1.5,2.6-4.3,1.2-6.4
			c-1.5-2.1-4.3-2.6-6.4-1.2C209.6,396.4,209.1,399.3,210.6,401.4z M200.6,402.6c-2.1,1.5-2.6,4.3-1.2,6.4s4.3,2.6,6.4,1.2
			c2.1-1.5,2.6-4.3,1.2-6.4C205.6,401.7,202.7,401.2,200.6,402.6z M189.6,410.4c-2.1,1.5-2.6,4.3-1.2,6.4s4.3,2.6,6.4,1.2
			c2.1-1.5,2.6-4.3,1.2-6.4S191.7,408.9,189.6,410.4z M359.4,407.5c1.5-0.4,2.3-2.1,1.9-3.5c-0.5-1.5-2-2.4-3.5-1.9
			c-0.5,0.1-47.4,13.7-82-22.4c-1-1-2.5-1.2-3.7-0.4c-0.1,0.1-0.2,0.2-0.3,0.3c-1.1,1.1-1.2,2.9-0.1,4
			C308.8,422.3,358.9,407.7,359.4,407.5z M256.8,479c0.3-0.4,31.4-42.4,8-90.6c-0.7-1.4-2.4-2-3.8-1.3c-0.1,0.1-0.3,0.1-0.4,0.2
			c-1.2,0.8-1.5,2.3-0.9,3.6c21.9,45-7.1,84.3-7.4,84.7c-0.9,1.3-0.7,3,0.6,4C254,480.5,255.9,480.2,256.8,479z M181.9,399.3
			c-2.1,1.5-2.6,4.3-1.2,6.4c1.5,2.1,4.3,2.6,6.4,1.2c2.1-1.5,2.6-4.3,1.2-6.4C186.8,398.3,184,397.8,181.9,399.3z M264.2,364.2
			c-2.9-4.2-8.8-5.3-13-2.3c-4.2,2.9-5.3,8.8-2.3,13c2.9,4.2,8.8,5.3,13,2.3C266.1,374.2,267.1,368.4,264.2,364.2z M174.1,388.2
			c-2.1,1.5-2.6,4.3-1.2,6.4c1.5,2.1,4.3,2.6,6.4,1.2c2.1-1.5,2.6-4.3,1.2-6.4S176.2,386.7,174.1,388.2z M242.7,479.7l0.2-0.1
			c0.3-0.2,0.6-0.3,0.9-0.5c7-4.9,3.1-21.9,1.7-27.2c0-0.1,0-0.2,0-0.2l-0.1-0.4c-0.1-0.2-0.1-0.4-0.2-0.5c0-0.1,0-0.3-0.1-0.4
			c-0.2-0.3-0.6-0.4-0.9-0.2c0,0-0.1,0-0.1,0.1c-0.1,0-0.1,0.1-0.2,0.2c-0.5,0.9-11.5,23.2-2.6,29.2
			C241.6,479.9,242.2,479.9,242.7,479.7z M232.2,480.8c1.4-0.7,2-2.4,1.3-3.8c-21.9-45.1,7.1-84.3,7.4-84.7c0.9-1.3,0.7-3-0.6-4
			c-1-0.7-2.3-0.8-3.3-0.1c-0.2,0.2-0.5,0.4-0.6,0.6c-0.3,0.4-31.4,42.4-8,90.6C229.1,480.9,230.8,481.5,232.2,480.8z M131.9,370.3
			L137,341l-29.3-5.2L131.9,370.3z M334.6,443.4L304.7,464l50.4,9.3L334.6,443.4z M335.2,462.8c-2.6,1.8-6.3,1.2-8.1-1.5
			c-1.8-2.6-1.2-6.3,1.5-8.1c2.6-1.8,6.3-1.2,8.1,1.5C338.5,457.3,337.8,461,335.2,462.8z M173.7,514.3l19.3,27.9l27.9-19.3
			L173.7,514.3z M226,542.8L226,542.8c0.8,0.3,1.3,1,1.6,1.5l0,0c0.7,1.4,2.1,1.8,2.7,2c0,0,0.1,0,0-0.1c-0.2-0.2-0.6-0.7-0.8-1.3
			C229,542.7,226.7,542.7,226,542.8z M310.3,597.2c1.5,0.3,3-0.7,3.2-2.2c0.2-1.3-0.5-2.6-1.7-3.1c-0.2-0.1-0.5-0.2-0.8-0.3
			c-1.5-0.3-3,0.7-3.2,2.2c-0.2,1.3,0.5,2.6,1.7,3.1C309.7,597,310,597.1,310.3,597.2z M300,467.1l-75.9,52.3l22.7,4.2l75.9-52.3
			L300,467.1z M286.4,527.3c2.6-1.6,6.4-1.1,8.2-0.6l0,0l0,0c0.1,0,0.1,0,0.2,0c0.4,0.1,0.8,0.2,1.2,0.2c1.8,0.1,2.6-1,2.6-1.1
			s0.1-0.2,0.2-0.4l0,0l0,0l0,0c0,0,0.2-0.4,0.2-0.6v-0.1l0,0c0-0.1,0.1-0.2,0.1-0.3c0.1-0.2,0.2-0.3,0.4-0.4l0,0
			c0.3-0.1,0.6-0.1,0.9-0.3s0.5-0.4,0.6-0.7l0,0c0,0,0,0,0-0.1l-0.2-0.4c0,0,0,0-0.1-0.1h-0.1l0,0l0,0c-0.3,0.3-0.7,0.4-0.9,0.4l0,0
			l0,0h-0.1l0,0l0,0c-0.2,0-0.3-0.1-0.5-0.3c-0.1-0.1-0.1-0.2-0.2-0.3c-0.2-0.5-0.5-1-1-1.4c-0.4-0.3-0.8-0.5-1.4-0.7l0,0l0,0
			c-0.7-0.2-1.6-0.2-2.6-0.2c0,0-1.3,0.1-2.1,0.4l-0.9,0.3c-0.6,0.2-1,0.4-1.5,0.7c-0.1,0-0.2,0.1-0.3,0.2c-0.1,0.1-0.2,0.1-0.2,0.1
			l0,0c-0.4,0.3-0.6,0.4-1,0.8c-0.1,0.1-0.2,0.2-0.3,0.3l-0.1,0.1c-0.2,0.2-0.5,0.5-0.7,0.8c-0.6,0.8-1,1.4-1.1,1.8l0,0
			c-0.1,0.1-0.3,0.7-0.3,1c0,0.2,0,0.4,0.1,0.6C285.8,527.7,286.4,527.3,286.4,527.3z M307.5,530.4L307.5,530.4L307.5,530.4l0.1-0.1
			c0.2-0.4,0.5-0.6,0.8-0.7l0,0l0,0h0.1l0,0l0,0c0.2,0,0.4,0,0.6,0.2c0.1,0.1,0.2,0.2,0.3,0.3c0.4,0.4,0.8,0.7,1.4,1
			c0.5,0.2,1,0.2,1.5,0.2l0,0l0,0c0.7-0.1,1.6-0.3,2.5-0.7c0,0,1.1-0.5,1.8-1l0.7-0.5c0.5-0.4,0.8-0.7,1.2-1.1
			c0.1-0.1,0.1-0.2,0.2-0.3s0.1-0.2,0.2-0.2l0,0c0.3-0.4,0.4-0.5,0.7-1c0.1-0.1,0.1-0.2,0.2-0.4c0-0.1,0.1-0.1,0.1-0.2
			c0.1-0.3,0.3-0.6,0.4-1c0.3-1,0.4-1.7,0.5-2.1l0,0c0-0.2,0.1-0.7,0-1.1c-0.1-0.2-0.2-0.4-0.3-0.5c-0.5-0.3-1,0.2-1,0.2
			c-1.9,2.4-5.6,3.2-7.5,3.3l0,0l0,0c-0.1,0-0.1,0-0.2,0c-0.4,0-0.8,0.1-1.2,0.2c-1.8,0.6-2.1,1.8-2.1,1.9c0,0.1-0.1,0.2-0.1,0.4
			l0,0l0,0l0,0c0,0,0,0.5,0,0.6v0.1l0,0c0,0.1,0,0.2,0,0.3c0,0.2-0.1,0.4-0.2,0.5l0,0c-0.3,0.2-0.5,0.4-0.7,0.6
			c-0.2,0.2-0.3,0.5-0.3,0.8l0,0c0,0,0,0,0,0.1L307.5,530.4C307.4,530.4,307.5,530.4,307.5,530.4z M298.4,518c0.2,0,0.7-0.1,1-0.3
			c0.2-0.1,0.4-0.3,0.4-0.4c0.2-0.6-0.4-0.9-0.4-0.9c-2.8-1.3-4.4-4.8-4.9-6.6l0,0l0,0c0-0.1-0.1-0.1-0.1-0.2
			c-0.1-0.4-0.3-0.8-0.5-1.1c-0.9-1.6-2.3-1.6-2.4-1.6s-0.2,0-0.4,0l0,0l0,0l0,0c0,0-0.5,0.1-0.6,0.1h-0.1l0,0c-0.1,0-0.2,0-0.3,0
			c-0.2,0-0.4,0-0.5-0.1l0,0c-0.2-0.3-0.5-0.5-0.7-0.6c-0.3-0.2-0.6-0.2-0.9-0.1l0,0c0,0,0,0-0.1,0l-0.3,0.4c0,0,0,0,0,0.1
			c0,0,0,0.1,0.1,0.1l0,0l0,0c0.4,0.1,0.7,0.4,0.9,0.6l0,0l0,0c0,0,0,0.1,0.1,0.1l0,0l0,0c0.1,0.2,0.1,0.4,0,0.6
			c-0.1,0.1-0.1,0.2-0.2,0.4c-0.3,0.4-0.5,1-0.6,1.5s0,1,0.2,1.5l0,0l0,0c0.2,0.7,0.6,1.5,1.3,2.3c0,0,0.8,1,1.4,1.6l0.7,0.6
			c0.5,0.4,0.8,0.6,1.4,0.9c0.1,0,0.2,0.1,0.3,0.2c0.1,0,0.2,0.1,0.3,0.1l0,0c0.4,0.2,0.6,0.3,1.2,0.5c0.1,0,0.3,0.1,0.4,0.1
			s0.1,0,0.2,0c0.3,0.1,0.7,0.1,1.1,0.2C297.2,518.1,297.9,518.1,298.4,518L298.4,518z M265.9,522.1c0.4,0.5,0.9,0.2,0.9,0.2
			c2.7-1.4,6.4-0.6,8.2,0.1l0,0l0,0c0.1,0,0.1,0,0.2,0c0.4,0.1,0.8,0.2,1.2,0.3c1.8,0.2,2.7-0.8,2.7-0.9c0,0,0.1-0.2,0.2-0.3l0,0
			l0,0l0,0c0,0,0.2-0.4,0.3-0.5c0,0,0-0.1,0.1-0.1l0,0c0.1-0.1,0.1-0.2,0.1-0.3c0.1-0.2,0.3-0.3,0.4-0.3l0,0c0.3,0,0.6-0.1,0.9-0.2
			c0.3-0.1,0.5-0.3,0.7-0.6l0,0c0,0,0,0,0-0.1l-0.1-0.4v-0.1h-0.1l0,0l0,0c-0.3,0.3-0.8,0.3-1,0.3l0,0l0,0h-0.1l0,0l0,0
			c-0.2,0-0.3-0.2-0.4-0.4c-0.1-0.1-0.1-0.2-0.2-0.4c-0.2-0.5-0.4-1-0.8-1.4c-0.4-0.3-0.8-0.6-1.3-0.8l0,0l0,0
			c-0.7-0.3-1.6-0.4-2.6-0.4c0,0-1.3,0-2.1,0.2l-0.9,0.2c-0.7,0.2-1,0.3-1.6,0.5c-0.1,0-0.2,0.1-0.3,0.2c-0.1,0-0.2,0.1-0.3,0.1l0,0
			c-0.4,0.2-0.6,0.3-1.1,0.7c-0.1,0.1-0.2,0.2-0.4,0.3l-0.1,0.1c-0.2,0.2-0.5,0.5-0.8,0.8c-0.7,0.7-1.1,1.3-1.3,1.7l0,0
			c-0.1,0.1-0.4,0.6-0.4,1C265.8,521.7,265.8,521.9,265.9,522.1z M352.2,531.9c-0.1-0.6-0.8-0.6-0.8-0.6c-3.1,0.2-6.2-2-7.5-3.3l0,0
			l0,0c-0.1,0-0.1-0.1-0.2-0.1c-0.3-0.3-0.7-0.5-1-0.7c-1.6-0.9-2.8-0.3-2.9-0.2c-0.1,0-0.2,0.1-0.4,0.2l0,0l0,0l0,0
			c0,0-0.4,0.3-0.5,0.4l-0.1,0.1l0,0c-0.1,0.1-0.2,0.1-0.2,0.2c-0.2,0.1-0.4,0.2-0.5,0.2l0,0c-0.3-0.1-0.6-0.2-0.9-0.2
			s-0.6,0.1-0.9,0.3l0,0c0,0,0,0,0,0.1l-0.1,0.5v0.1l0.1,0.1l0,0l0,0c0.4-0.1,0.8,0,1,0.1l0,0l0,0c0,0,0.1,0,0.1,0.1l0,0l0,0
			c0.2,0.1,0.2,0.3,0.3,0.5c0,0.1,0,0.3,0,0.4c-0.1,0.5,0,1.1,0.2,1.6c0.2,0.4,0.5,0.9,0.9,1.2l0,0l0,0c0.6,0.5,1.3,1,2.2,1.4
			c0,0,1.2,0.5,2,0.6l0.9,0.2c0.7,0.1,1,0.1,1.7,0.1c0.1,0,0.2,0,0.4,0c0.1,0,0.2,0,0.3,0l0,0c0.5,0,0.7-0.1,1.2-0.2
			c0.1,0,0.3-0.1,0.4-0.1s0.1,0,0.2,0c0.3-0.1,0.7-0.2,1.1-0.4c0.9-0.4,1.5-0.8,1.9-1.1l0,0c0.2-0.1,0.6-0.4,0.8-0.7
			C352.2,532.3,352.2,532.1,352.2,531.9z M331.4,526.4L331.4,526.4c0-0.1,0-0.1,0-0.2c0-0.4,0-0.8-0.1-1.2c-0.3-1.8-1.6-2.3-1.7-2.3
			s-0.2-0.1-0.4-0.1l0,0l0,0l0,0c0,0-0.5-0.1-0.6-0.1h-0.1l0,0c-0.1,0-0.2,0-0.3-0.1c-0.2-0.1-0.4-0.2-0.4-0.3l0,0
			c-0.1-0.3-0.3-0.6-0.5-0.8c-0.2-0.3-0.5-0.4-0.8-0.4l0,0c0,0,0,0-0.1,0L326,521c0,0,0,0,0,0.1v0.1l0,0l0,0
			c0.4,0.2,0.5,0.6,0.6,0.8l0,0l0,0v0.1l0,0c0,0.2,0,0.4-0.2,0.5c-0.1,0.1-0.2,0.2-0.3,0.3c-0.4,0.3-0.8,0.7-1.1,1.2
			c-0.2,0.4-0.3,0.9-0.4,1.5l0,0l0,0c0,0.8,0.1,1.6,0.4,2.6c0,0,0.4,1.2,0.8,2l0.4,0.8c0.4,0.6,0.6,0.9,1,1.3c0,0.1,0.1,0.2,0.2,0.3
			s0.1,0.1,0.2,0.2l0,0c0.3,0.3,0.5,0.5,0.9,0.8c0.1,0.1,0.2,0.2,0.4,0.3l0.1,0.1c0.3,0.2,0.6,0.4,1,0.6c0.9,0.5,1.6,0.6,2,0.7l0,0
			c0.2,0.1,0.7,0.2,1.1,0.1c0.2,0,0.4-0.1,0.5-0.3c0.4-0.5-0.1-1-0.1-1C331.6,532.1,331.3,528.3,331.4,526.4L331.4,526.4z
			 M235.8,507.1L202.6,459l-48.1,33.2L235.8,507.1z M209.6,535.6c-1,6.9,4.1,11.4,10.9,8.6c1.3-0.5,2.5-1.3,4.2-2.1
			c0.9-0.5,3.7-1,4.9,0.7h0.1c-0.3-4.5-3.6-6.6-6.5-7c-1.6-0.2-2.9,0-3.7,0.3c0,0-0.1,0,0,0c0.6-1.1,1.9-1.6,2.3-1.8v-0.1
			c-0.3-0.2-1.4-0.8-3.2-0.9c-3.2-0.1-4.2,1.4-6,2.9c-1.6,1.3-2.4,0.2-2.7-0.5C209.7,535.5,209.6,535.5,209.6,535.6z M140.8,219.8
			c2.9,4.2,8.8,5.3,13,2.3c4.2-2.9,5.3-8.8,2.3-13c-2.9-4.2-8.8-5.3-13-2.3C138.9,209.7,137.8,215.6,140.8,219.8z M46,176.4
			c-1.5,0.4-2.3,2.1-1.9,3.5c0.5,1.5,2,2.4,3.5,1.9c0.5-0.1,47.4-13.7,82,22.4c1,1,2.5,1.2,3.7,0.4c0.1-0.1,0.2-0.2,0.3-0.3
			c1.1-1.1,1.2-2.9,0.1-4C96.6,161.6,46.5,176.2,46,176.4z M220.4,517.8l11.9-8.2l-70.9-13l8.3,12L220.4,517.8z M217.3,580.2
			c1.5,0.3,3-0.7,3.2-2.2c0.2-1.3-0.5-2.6-1.7-3.1c-0.2-0.1-0.5-0.2-0.8-0.3c-1.5-0.3-3,0.7-3.2,2.2c-0.2,1.3,0.5,2.6,1.7,3.1
			C216.7,580,217,580.1,217.3,580.2z M218.2,577.2l-0.2,0.1l0,0C218.1,577.2,218.4,577.1,218.2,577.2z M189.5,443.9
			c-4.2-6-12.6-7.5-18.6-3.2c-6,4.2-7.5,12.6-3.2,18.6c4.2,6,12.6,7.5,18.6,3.2S193.7,449.9,189.5,443.9z M180.9,455.8L180.9,455.8
			c-0.1,0,0.1,0.9-0.9,1.9c-0.1,0.1-0.9,0.7-1.9,0.8c-0.4,0-1-0.1-1.6-0.5l0,0l0,0c-0.2-0.1-0.3-0.2-0.5-0.4c0,0-0.2-0.1-0.4-0.4
			c-0.2-0.2-0.3-0.4-0.4-0.7c-0.3-0.5-0.5-1.1-0.6-1.9c0,0-0.1-0.8,0.1-2c0,0,0.5-2.9,0.1-4.1c-0.4-1.3-1-1.9-1-1.9s2.9,0.4,3.9,0.6
			c0.7,0.2,2.8,0.9,2.8,0.9s2.2,0.7,3.5,2.3l0,0c0.6,0.7,0.9,1.4,1,1.9l0,0c0,0,0,0.2,0,0.4c0,0.4,0,0.8-0.1,0.9
			c-0.1,0.4-0.3,0.9-0.6,1.3C184.3,454.8,183.2,456.5,180.9,455.8z M55.6,273.7c6.1-4.2,7.6-12.5,3.4-18.6s-12.5-7.6-18.6-3.4
			c-6.1,4.2-7.6,12.5-3.4,18.6C41.2,276.4,49.5,277.9,55.6,273.7z M41.4,263c-0.1-0.2-0.1-0.4-0.2-0.6l0,0l0,0
			c-0.1-0.6,0-1.2,0.1-1.6c0.4-1,1.3-1.5,1.4-1.5c1.2-0.6,2.1-0.1,2.1-0.1v-0.1c0.1-2.4,2.1-2.9,2.1-2.9c0.5-0.2,1-0.2,1.4-0.1
			c0.2,0,0.5,0.1,0.9,0.2c0.2,0.1,0.4,0.2,0.4,0.2l0,0c0.5,0.3,1.1,0.8,1.5,1.6l0,0c1,1.8,1,4,1,4s-0.1,2.2-0.2,2.9
			c-0.1,1-0.8,3.9-0.8,3.9s-0.4-0.8-1.4-1.6c-1-0.8-3.9-1.3-3.9-1.3c-1.1-0.2-1.9-0.6-1.9-0.6c-0.7-0.4-1.2-0.8-1.6-1.2
			c-0.2-0.2-0.4-0.4-0.5-0.6C41.5,263.2,41.4,263,41.4,263z M294.7,502.1c0.3,0.5,0.9,0.3,0.9,0.3c2.8-1.2,6.5-0.2,8.2,0.6l0,0l0,0
			c0.1,0,0.1,0,0.2,0.1c0.4,0.2,0.8,0.3,1.2,0.4c1.8,0.3,2.7-0.7,2.8-0.7c0,0,0.2-0.2,0.3-0.3l0,0l0,0l0,0c0,0,0.3-0.4,0.3-0.5
			c0,0,0-0.1,0.1-0.1l0,0c0.1-0.1,0.1-0.2,0.2-0.2c0.1-0.2,0.3-0.3,0.4-0.3l0,0c0.3,0,0.6-0.1,0.9-0.2s0.6-0.3,0.7-0.6l0,0
			c0,0,0,0,0-0.1l-0.1-0.5v-0.1h-0.1l0,0l0,0c-0.3,0.3-0.8,0.3-1,0.3l0,0l0,0h-0.1l0,0l0,0c-0.2,0-0.3-0.2-0.4-0.4
			c-0.1-0.1-0.1-0.2-0.2-0.4c-0.1-0.5-0.4-1-0.8-1.5c-0.3-0.4-0.8-0.6-1.3-0.9l0,0l0,0c-0.7-0.3-1.6-0.5-2.6-0.5
			c0,0-1.3-0.1-2.1,0.1l-0.9,0.1c-0.7,0.1-1,0.2-1.6,0.5c-0.1,0-0.2,0.1-0.3,0.1c-0.1,0-0.2,0.1-0.3,0.1l0,0
			c-0.4,0.2-0.6,0.3-1.1,0.6c-0.1,0.1-0.2,0.2-0.4,0.3l-0.1,0.1c-0.3,0.2-0.5,0.4-0.9,0.7c-0.7,0.7-1.2,1.3-1.4,1.7l0,0
			c-0.1,0.1-0.4,0.6-0.5,1C294.5,501.7,294.6,501.9,294.7,502.1z M140.6,195.5c0.7,1.4,2.4,2,3.8,1.3c0.1-0.1,0.3-0.1,0.4-0.2
			c1.2-0.8,1.5-2.3,0.9-3.6c-21.9-45,7.1-84.3,7.4-84.7c0.9-1.3,0.7-3-0.6-4c-1.2-0.9-3.1-0.7-4,0.6
			C148.2,105.3,117.1,147.3,140.6,195.5z"/>
	</g>
</g>
</svg>
